<?xml version="1.0" encoding="utf-8"?>
<!-- Generator: Adobe Illustrator 23.0.0, SVG Export Plug-In . SVG Version: 6.00 Build 0)  -->
<svg version="1.1" id="Layer_1" xmlns="http://www.w3.org/2000/svg" xmlns:xlink="http://www.w3.org/1999/xlink" x="0px" y="0px"
	 viewBox="0 0 80.62 70.31" style="enable-background:new 0 0 80.62 70.31;" xml:space="preserve">
<style type="text/css">
	.st0{fill:#F0575B;}
	.st1{fill:#FFFFFF;}
</style>
<g>
	<g id="XMLID_53_">
		<path id="XMLID_1_" class="st0" d="M70.22,0H10.4C4.68,0,0,4.68,0,10.4v33.53c0,5.72,4.68,10.4,10.4,10.4h10.52
			c1.08,0,2.11,0.43,2.88,1.19l13.6,13.6c1.59,1.59,4.16,1.59,5.75,0l13.6-13.6c0.76-0.76,1.8-1.19,2.88-1.19h10.61
			c5.72,0,10.4-4.68,10.4-10.4V10.4C80.62,4.68,75.94,0,70.22,0z"/>
	</g>
	<path class="st1" d="M53.69,35.94c1.26-2.39,1.98-5.11,1.98-8c0-9.53-7.72-17.25-17.25-17.25c-9.53,0-17.25,7.72-17.25,17.25
		c0,9.53,7.72,17.25,17.25,17.25c2.78,0,5.39-0.67,7.72-1.84l9.53,1.84L53.69,35.94z"/>
</g>
</svg>
