<?xml version="1.0" encoding="utf-8"?>
<!-- Generator: Adobe Illustrator 23.0.0, SVG Export Plug-In . SVG Version: 6.00 Build 0)  -->
<svg version="1.1" id="Layer_1" xmlns="http://www.w3.org/2000/svg" xmlns:xlink="http://www.w3.org/1999/xlink" x="0px" y="0px"
	 viewBox="0 0 80.62 70.31" style="enable-background:new 0 0 80.62 70.31;" xml:space="preserve">
<style type="text/css">
	.st0{opacity:0.2;}
	.st1{fill:#F9F9FA;}
</style>
<g id="XMLID_38_" class="st0">
	<path class="st1" d="M73.92,68.75l-19.5-3.77c-4.54,2.18-9.37,3.28-14.37,3.28C21.66,68.26,6.7,53.3,6.7,34.91
		S21.66,1.57,40.05,1.57S73.4,16.53,73.4,34.91c0,5.14-1.21,10.27-3.52,14.88L73.92,68.75z M40.05,5.18
		c-16.4,0-29.73,13.34-29.73,29.73s13.34,29.73,29.73,29.73c4.63,0,9.11-1.07,13.31-3.17l0.55-0.28l15.34,2.96l-3.17-14.88l0.3-0.58
		c2.26-4.3,3.41-8.94,3.41-13.79C69.78,18.52,56.45,5.18,40.05,5.18z"/>
</g>
</svg>
