<?xml version="1.0" encoding="utf-8"?>
<!-- Generator: Adobe Illustrator 23.0.0, SVG Export Plug-In . SVG Version: 6.00 Build 0)  -->
<svg version="1.1" id="Layer_1" xmlns="http://www.w3.org/2000/svg" xmlns:xlink="http://www.w3.org/1999/xlink" x="0px" y="0px"
	 viewBox="0 0 80.62 70.31" style="enable-background:new 0 0 80.62 70.31;" xml:space="preserve">
<style type="text/css">
	.st0{fill:#F0575B;}
	.st1{fill:#FFFFFF;}
</style>
<g>
	<path id="XMLID_18_" class="st0" d="M70.22,0H10.4C4.68,0,0,4.68,0,10.4v33.53c0,5.72,4.68,10.4,10.4,10.4h10.52
		c1.08,0,2.11,0.43,2.88,1.19l13.6,13.6c1.59,1.59,4.16,1.59,5.75,0l13.6-13.6c0.76-0.76,1.8-1.19,2.88-1.19h10.61
		c5.72,0,10.4-4.68,10.4-10.4V10.4C80.62,4.68,75.94,0,70.22,0z"/>
	<g id="XMLID_15_">
		<path id="XMLID_17_" class="st1" d="M45.51,18.55c0,4.35-3.52,7.87-7.87,7.87s-7.87-3.52-7.87-7.87c0-4.34,3.52-7.87,7.87-7.87
			S45.51,14.21,45.51,18.55z"/>
		<path id="XMLID_16_" class="st1" d="M54.07,45.58H21.23l0,0c0-8.31,6.74-15.05,15.05-15.05h2.74
			C47.33,30.53,54.07,37.26,54.07,45.58L54.07,45.58z"/>
	</g>
</g>
</svg>
