<?xml version="1.0" encoding="utf-8"?>
<!-- Generator: Adobe Illustrator 23.0.0, SVG Export Plug-In . SVG Version: 6.00 Build 0)  -->
<svg version="1.1" id="Layer_1" xmlns="http://www.w3.org/2000/svg" xmlns:xlink="http://www.w3.org/1999/xlink" x="0px" y="0px"
	 viewBox="0 0 80.62 70.31" style="enable-background:new 0 0 80.62 70.31;" xml:space="preserve">
<style type="text/css">
	.st0{opacity:0.16;}
	.st1{fill:#F9F9FA;}
</style>
<g id="XMLID_71_" class="st0">
	<path class="st1" d="M38.88,69.34L5.38,35.84l0.02-0.02C1.91,31.97,0,27.03,0,21.83C0,10.33,9.36,0.97,20.86,0.97
		c8.69,0,16.39,5.4,19.45,13.37C43.37,6.36,51.07,0.97,59.76,0.97c11.5,0,20.86,9.36,20.86,20.86c0,6.09-2.67,11.87-7.32,15.85
		L38.88,69.34z M7.35,35.74l31.58,31.57l33.41-30.73c4.34-3.72,6.83-9.09,6.83-14.75c0-10.7-8.7-19.4-19.4-19.4
		c-8.8,0-16.51,5.95-18.74,14.48l-0.71,2.71l-0.71-2.71C37.37,8.39,29.66,2.43,20.86,2.43c-10.7,0-19.4,8.7-19.4,19.4
		c0,5.08,1.96,9.89,5.52,13.54L7.35,35.74z"/>
</g>
</svg>
