<?xml version="1.0" encoding="utf-8"?>
<!-- Generator: Adobe Illustrator 23.0.0, SVG Export Plug-In . SVG Version: 6.00 Build 0)  -->
<svg version="1.1" id="Layer_1" xmlns="http://www.w3.org/2000/svg" xmlns:xlink="http://www.w3.org/1999/xlink" x="0px" y="0px"
	 viewBox="0 0 80.62 70.31" style="enable-background:new 0 0 80.62 70.31;" xml:space="preserve">
<style type="text/css">
	.st0{fill:#F0575B;}
	.st1{fill:#FFFFFF;}
</style>
<g id="XMLID_6_">
	<path id="XMLID_10_" class="st0" d="M70.22,0H10.4C4.68,0,0,4.68,0,10.4v33.53c0,5.72,4.68,10.4,10.4,10.4h10.52
		c1.08,0,2.11,0.43,2.88,1.19l13.6,13.6c1.59,1.59,4.16,1.59,5.75,0l13.6-13.6c0.76-0.76,1.8-1.19,2.88-1.19h10.61
		c5.72,0,10.4-4.68,10.4-10.4V10.4C80.62,4.68,75.94,0,70.22,0z"/>
	<g id="XMLID_7_">
		<path id="XMLID_9_" class="st1" d="M59.57,19.07c-0.5-5.3-5-9.5-10.32-9.67c-5.14-0.17-9.49,3.29-10.72,8
			c-1.3-4.95-6.03-8.52-11.51-7.95c-4.7,0.49-8.63,4.13-9.42,8.79c-0.62,3.64,0.61,7.02,2.89,9.36l0,0l0.05,0.05
			c0.03,0.03,0.06,0.06,0.09,0.09l17.15,17.15l18.08-16.63h0C58.4,26.09,59.92,22.75,59.57,19.07z"/>
	</g>
</g>
</svg>
