<?xml version="1.0" encoding="utf-8"?>
<!-- Generator: Adobe Illustrator 23.0.0, SVG Export Plug-In . SVG Version: 6.00 Build 0)  -->
<svg version="1.1" id="Layer_1" xmlns="http://www.w3.org/2000/svg" xmlns:xlink="http://www.w3.org/1999/xlink" x="0px" y="0px"
	 viewBox="0 0 80.62 70.31" style="enable-background:new 0 0 80.62 70.31;" xml:space="preserve">
<style type="text/css">
	.st0{opacity:0.16;}
	.st1{fill:#F9F9FA;}
</style>
<g id="XMLID_34_" class="st0">
	<g id="XMLID_37_">
		<path class="st1" d="M56.4,67.67H24.23c-10.87,0-19.71-8.84-19.71-19.71V22.36c0-10.87,8.84-19.71,19.71-19.71H56.4
			c10.87,0,19.71,8.84,19.71,19.71v25.59C76.11,58.82,67.27,67.67,56.4,67.67z M24.23,3.93C14.07,3.93,5.8,12.2,5.8,22.36v25.59
			c0,10.16,8.27,18.43,18.43,18.43H56.4c10.16,0,18.43-8.27,18.43-18.43V22.36c0-10.16-8.27-18.43-18.43-18.43H24.23z"/>
	</g>
	<polygon class="st1" points="55.74,34.51 40.95,34.51 40.95,19.73 39.67,19.73 39.67,34.51 24.88,34.51 24.88,35.8 39.67,35.8 
		39.67,50.58 40.95,50.58 40.95,35.8 55.74,35.8 	"/>
</g>
</svg>
