<?xml version="1.0" encoding="utf-8"?>
<!-- Generator: Adobe Illustrator 23.0.0, SVG Export Plug-In . SVG Version: 6.00 Build 0)  -->
<svg version="1.1" id="Layer_1" xmlns="http://www.w3.org/2000/svg" xmlns:xlink="http://www.w3.org/1999/xlink" x="0px" y="0px"
	 viewBox="0 0 80.62 70.31" style="enable-background:new 0 0 80.62 70.31;" xml:space="preserve">
<style type="text/css">
	.st0{opacity:0.2;fill:#F9F9FA;}
</style>
<path class="st0" d="M80.62,64.72L59.23,50.38c2.5-4.52,3.92-9.71,3.92-15.23c0-17.41-14.17-31.58-31.58-31.58S0,17.74,0,35.16
	c0,17.41,14.17,31.58,31.58,31.58c11.11,0,20.89-5.77,26.52-14.47l21.3,14.28L80.62,64.72z M31.58,64.54
	c-16.2,0-29.38-13.18-29.38-29.38c0-16.2,13.18-29.38,29.38-29.38s29.38,13.18,29.38,29.38C60.96,51.36,47.78,64.54,31.58,64.54z"/>
</svg>
