<?xml version="1.0" encoding="utf-8"?>
<!-- Generator: Adobe Illustrator 23.0.0, SVG Export Plug-In . SVG Version: 6.00 Build 0)  -->
<svg version="1.1" id="Layer_1" xmlns="http://www.w3.org/2000/svg" xmlns:xlink="http://www.w3.org/1999/xlink" x="0px" y="0px"
	 viewBox="0 0 80.62 70.31" style="enable-background:new 0 0 80.62 70.31;" xml:space="preserve">
<style type="text/css">
	.st0{opacity:0.2;}
	.st1{fill:#F9F9FA;}
</style>
<g id="XMLID_31_" class="st0">
	<g id="XMLID_33_">
		<path class="st1" d="M40.31,33.72c-9.29,0-16.85-7.56-16.85-16.85c0-9.29,7.56-16.85,16.85-16.85c9.29,0,16.85,7.56,16.85,16.85
			C57.16,26.16,49.6,33.72,40.31,33.72z M40.31,2.61c-7.86,0-14.26,6.4-14.26,14.26c0,7.86,6.4,14.26,14.26,14.26
			c7.86,0,14.26-6.4,14.26-14.26C54.57,9.01,48.17,2.61,40.31,2.61z"/>
	</g>
	<g id="XMLID_32_">
		<path class="st1" d="M74.07,70.29h-2.59c0-15.69-12.77-28.46-28.46-28.46h-5.41c-15.69,0-28.46,12.77-28.46,28.46H6.55
			c0-17.12,13.93-31.05,31.05-31.05h5.41C60.14,39.24,74.07,53.17,74.07,70.29z"/>
	</g>
</g>
</svg>
