<?xml version="1.0" encoding="utf-8"?>
<!-- Generator: Adobe Illustrator 23.0.0, SVG Export Plug-In . SVG Version: 6.00 Build 0)  -->
<svg version="1.1" id="Layer_1" xmlns="http://www.w3.org/2000/svg" xmlns:xlink="http://www.w3.org/1999/xlink" x="0px" y="0px"
	 viewBox="0 0 1920 1080" style="enable-background:new 0 0 1920 1080;" xml:space="preserve">
<style type="text/css">
	.st0{opacity:0.15;}
	.st1{fill:#F9F9FA;}
</style>
<g>
	<g class="st0">
		<path class="st1" d="M791.3,972.8h-48.9c-16.5,0-30,13.5-30,30v38.9c0,16.5,13.5,30,30,30h48.9c16.5,0,30-13.5,30-30v-38.9
			C821.3,986.3,807.8,972.8,791.3,972.8z M819.3,1041.8c0,15.5-12.6,28-28,28h-48.9c-15.5,0-28-12.6-28-28v-38.9
			c0-15.5,12.6-28,28-28h48.9c15.5,0,28,12.6,28,28V1041.8z"/>
		<polygon class="st1" points="767.8,998.8 765.8,998.8 765.8,1021.3 743.3,1021.3 743.3,1023.3 765.8,1023.3 765.8,1045.8 
			767.8,1045.8 767.8,1023.3 790.3,1023.3 790.3,1021.3 767.8,1021.3 		"/>
		<path class="st1" d="M123.1,462c-11.6,0-21.9,7.2-25.9,17.8C93.1,469.2,82.9,462,71.3,462c-15.3,0-27.8,12.5-27.8,27.8
			c0,7,2.6,13.5,7.2,18.7l0,0l44.6,44.6l45.9-42.2c6.2-5.3,9.8-13,9.8-21.1C151,474.5,138.5,462,123.1,462z M139.9,509.5l-44.5,41
			l-42.1-42.1l-0.5-0.5c-4.7-4.9-7.4-11.3-7.4-18c0-14.3,11.6-25.9,25.9-25.9c11.7,0,22,7.9,25,19.3l0.9,3.6l0.9-3.6
			c3-11.4,13.3-19.3,25-19.3c14.3,0,25.9,11.6,25.9,25.9C149,497.3,145.7,504.5,139.9,509.5z"/>
		<path class="st1" d="M912.5,173.5c11.7,0,21.3-9.5,21.3-21.3c0-11.7-9.5-21.3-21.3-21.3c-11.7,0-21.3,9.5-21.3,21.3
			C891.2,164,900.8,173.5,912.5,173.5z M912.5,134.3c9.9,0,18,8.1,18,18c0,9.9-8.1,18-18,18c-9.9,0-18-8.1-18-18
			C894.5,142.3,902.6,134.3,912.5,134.3z"/>
		<path class="st1" d="M915.9,180.5h-6.8c-21.6,0-39.2,17.6-39.2,39.2h3.3c0-19.8,16.1-35.9,35.9-35.9h6.8
			c19.8,0,35.9,16.1,35.9,35.9h3.3C955.1,198.1,937.5,180.5,915.9,180.5z"/>
		<path class="st1" d="M1028.4,8.2h-21.7c-7.3,0-13.3,6-13.3,13.3v17.2c0,7.3,6,13.3,13.3,13.3h21.7c7.3,0,13.3-6,13.3-13.3V21.5
			C1041.6,14.2,1035.7,8.2,1028.4,8.2z M1040.8,38.8c0,6.8-5.6,12.4-12.4,12.4h-21.7c-6.8,0-12.4-5.6-12.4-12.4V21.5
			c0-6.8,5.6-12.4,12.4-12.4h21.7c6.8,0,12.4,5.6,12.4,12.4V38.8z"/>
		<polygon class="st1" points="1018,19.8 1017.1,19.8 1017.1,29.7 1007.1,29.7 1007.1,30.6 1017.1,30.6 1017.1,40.5 1018,40.5 
			1018,30.6 1027.9,30.6 1027.9,29.7 1018,29.7 		"/>
		<path class="st1" d="M461.7,196.9l10.5,2l-2.2-10.2c1.3-2.5,1.9-5.2,1.9-8c0-9.9-8.1-18-18-18s-18,8.1-18,18s8.1,18,18,18
			C456.7,198.6,459.3,198,461.7,196.9z M437.9,180.6c0-8.9,7.2-16.1,16.1-16.1c8.9,0,16.1,7.2,16.1,16.1c0,2.6-0.6,5.1-1.8,7.4
			l-0.2,0.3l1.7,8l-8.3-1.6l-0.3,0.1c-2.3,1.1-4.7,1.7-7.2,1.7C445.1,196.7,437.9,189.5,437.9,180.6z"/>
		<path class="st1" d="M243.9,876.2c0-26.7-21.7-48.4-48.4-48.4S147,849.5,147,876.2s21.7,48.4,48.4,48.4c7.3,0,14.3-1.6,20.9-4.8
			l28.3,5.5l-5.9-27.5C242.1,891,243.9,883.8,243.9,876.2z M237.8,918.7l-22.3-4.3l-0.8,0.4c-6.1,3.1-12.6,4.6-19.3,4.6
			c-23.8,0-43.2-19.4-43.2-43.2c0-23.8,19.4-43.2,43.2-43.2s43.2,19.4,43.2,43.2c0,7-1.7,13.8-4.9,20l-0.4,0.8L237.8,918.7z"/>
		<path class="st1" d="M747.3,637.8v88.1h58v-58.3c0-13.4,11.2-24.4,25-24.4c13.8,0,25,10.9,25,24.4v54.8h57.5v-80.5l-82.8-91.9
			L747.3,637.8z M910.9,720.4h-53.6v-52.8c0-14.5-12.1-26.3-27-26.3c-14.9,0-27,11.8-27,26.3V724h-54.1v-85.4l80.8-85.7l80.9,89.8
			V720.4z"/>
		<path class="st1" d="M168.8,185.1c0-6.3,5.2-11.4,11.7-11.4h0c6.5,0,11.7,5.1,11.7,11.4v24.2h25v-35.6l-36.8-40.8l-36.8,39v39
			h25.2V185.1z"/>
		<path class="st1" d="M546.3,813.1c0-25.9-21.1-47-47-47c-25.9,0-47,21.1-47,47c0,25.9,21.1,47,47,47c16.5,0,31.1-8.6,39.5-21.5
			l31.7,21.3l1.8-2.7l-31.9-21.4C544.2,829.1,546.3,821.3,546.3,813.1z M499.3,856.9c-24.1,0-43.8-19.6-43.8-43.8
			c0-24.1,19.6-43.8,43.8-43.8c24.1,0,43.8,19.6,43.8,43.8C543,837.2,523.4,856.9,499.3,856.9z"/>
		<path class="st1" d="M350.2,401.4c0-25.9-21.1-47-47-47c-25.9,0-47,21.1-47,47c0,25.9,21.1,47,47,47c16.5,0,31.1-8.6,39.5-21.5
			l31.7,21.3l1.8-2.7l-31.9-21.4C348.1,417.4,350.2,409.6,350.2,401.4z M303.2,445.2c-24.1,0-43.8-19.6-43.8-43.8
			c0-24.1,19.6-43.8,43.8-43.8c24.1,0,43.8,19.6,43.8,43.8C347,425.6,327.3,445.2,303.2,445.2z"/>
		<path class="st1" d="M716.6,401.6l19.8,19.8l20.4-18.8c2.8-2.4,4.3-5.8,4.3-9.4c0-6.8-5.6-12.4-12.4-12.4c-5.2,0-9.7,3.2-11.5,7.9
			c-1.8-4.7-6.4-7.9-11.5-7.9c-6.8,0-12.4,5.6-12.4,12.4C713.3,396.3,714.4,399.3,716.6,401.6L716.6,401.6z M714.1,393.2
			c0-6.3,5.2-11.5,11.5-11.5c5.2,0,9.8,3.5,11.1,8.6l0.4,1.6l0.4-1.6c1.3-5.1,5.9-8.6,11.1-8.6c6.4,0,11.5,5.2,11.5,11.5
			c0,3.4-1.5,6.6-4.1,8.8l-19.8,18.2l-18.8-18.8l-0.2-0.2C715.3,399.1,714.1,396.2,714.1,393.2z"/>
	</g>
	<g class="st0">
		<path class="st1" d="M1754.9,972.8H1706c-16.5,0-30,13.5-30,30v38.9c0,16.5,13.5,30,30,30h48.9c16.5,0,30-13.5,30-30v-38.9
			C1784.9,986.3,1771.5,972.8,1754.9,972.8z M1783,1041.8c0,15.5-12.6,28-28,28H1706c-15.5,0-28-12.6-28-28v-38.9
			c0-15.5,12.6-28,28-28h48.9c15.5,0,28,12.6,28,28V1041.8z"/>
		<polygon class="st1" points="1731.4,998.8 1729.5,998.8 1729.5,1021.3 1707,1021.3 1707,1023.3 1729.5,1023.3 1729.5,1045.8 
			1731.4,1045.8 1731.4,1023.3 1753.9,1023.3 1753.9,1021.3 1731.4,1021.3 		"/>
		<path class="st1" d="M1086.8,462c-11.6,0-21.9,7.2-25.9,17.8c-4.1-10.6-14.3-17.8-25.9-17.8c-15.3,0-27.8,12.5-27.8,27.8
			c0,7,2.6,13.5,7.2,18.7l0,0l44.6,44.6l45.9-42.2c6.2-5.3,9.8-13,9.8-21.1C1114.6,474.5,1102.1,462,1086.8,462z M1103.6,509.5
			l-44.5,41l-42.1-42.1l-0.5-0.5c-4.7-4.9-7.4-11.3-7.4-18c0-14.3,11.6-25.9,25.9-25.9c11.7,0,22,7.9,25,19.3l0.9,3.6l0.9-3.6
			c3-11.4,13.3-19.3,25-19.3c14.3,0,25.9,11.6,25.9,25.9C1112.7,497.3,1109.4,504.5,1103.6,509.5z"/>
		<path class="st1" d="M1425.4,196.9l10.5,2l-2.2-10.2c1.3-2.5,1.9-5.2,1.9-8c0-9.9-8.1-18-18-18c-9.9,0-18,8.1-18,18s8.1,18,18,18
			C1420.3,198.6,1422.9,198,1425.4,196.9z M1401.6,180.6c0-8.9,7.2-16.1,16.1-16.1c8.9,0,16.1,7.2,16.1,16.1c0,2.6-0.6,5.1-1.8,7.4
			l-0.2,0.3l1.7,8l-8.3-1.6l-0.3,0.1c-2.3,1.1-4.7,1.7-7.2,1.7C1408.8,196.7,1401.6,189.5,1401.6,180.6z"/>
		<path class="st1" d="M1207.5,876.2c0-26.7-21.7-48.4-48.4-48.4c-26.7,0-48.4,21.7-48.4,48.4s21.7,48.4,48.4,48.4
			c7.3,0,14.3-1.6,20.9-4.8l28.3,5.5l-5.9-27.5C1205.8,891,1207.5,883.8,1207.5,876.2z M1201.5,918.7l-22.3-4.3l-0.8,0.4
			c-6.1,3.1-12.6,4.6-19.3,4.6c-23.8,0-43.2-19.4-43.2-43.2c0-23.8,19.4-43.2,43.2-43.2s43.2,19.4,43.2,43.2c0,7-1.7,13.8-4.9,20
			l-0.4,0.8L1201.5,918.7z"/>
		<path class="st1" d="M1710.9,637.8v88.1h58v-58.3c0-13.4,11.2-24.4,25-24.4c13.8,0,25,10.9,25,24.4v54.8h57.5v-80.5l-82.8-91.9
			L1710.9,637.8z M1874.6,720.4H1821v-52.8c0-14.5-12.1-26.3-27-26.3c-14.9,0-27,11.8-27,26.3V724h-54.1v-85.4l80.8-85.7l80.9,89.8
			V720.4z"/>
		<path class="st1" d="M1132.4,185.1c0-6.3,5.2-11.4,11.7-11.4h0c6.5,0,11.7,5.1,11.7,11.4v24.2h25v-35.6l-36.8-40.8l-36.8,39v39
			h25.2V185.1z"/>
		<path class="st1" d="M1510,813.1c0-25.9-21.1-47-47-47c-25.9,0-47,21.1-47,47c0,25.9,21.1,47,47,47c16.5,0,31.1-8.6,39.5-21.5
			l31.7,21.3l1.8-2.7l-31.9-21.4C1507.9,829.1,1510,821.3,1510,813.1z M1463,856.9c-24.1,0-43.8-19.6-43.8-43.8
			c0-24.1,19.6-43.8,43.8-43.8c24.1,0,43.8,19.6,43.8,43.8C1506.7,837.2,1487.1,856.9,1463,856.9z"/>
		<path class="st1" d="M1313.9,401.4c0-25.9-21.1-47-47-47c-25.9,0-47,21.1-47,47c0,25.9,21.1,47,47,47c16.5,0,31.1-8.6,39.5-21.5
			l31.7,21.3l1.8-2.7l-31.9-21.4C1311.8,417.4,1313.9,409.6,1313.9,401.4z M1266.9,445.2c-24.1,0-43.8-19.6-43.8-43.8
			c0-24.1,19.6-43.8,43.8-43.8c24.1,0,43.8,19.6,43.8,43.8C1310.6,425.6,1291,445.2,1266.9,445.2z"/>
		<path class="st1" d="M1680.2,401.6l19.8,19.8l20.4-18.8c2.8-2.4,4.3-5.8,4.3-9.4c0-6.8-5.6-12.4-12.4-12.4
			c-5.2,0-9.7,3.2-11.5,7.9c-1.8-4.7-6.4-7.9-11.5-7.9c-6.8,0-12.4,5.6-12.4,12.4C1676.9,396.3,1678.1,399.3,1680.2,401.6
			L1680.2,401.6z M1677.8,393.2c0-6.3,5.2-11.5,11.5-11.5c5.2,0,9.8,3.5,11.1,8.6l0.4,1.6l0.4-1.6c1.3-5.1,5.9-8.6,11.1-8.6
			c6.4,0,11.5,5.2,11.5,11.5c0,3.4-1.5,6.6-4.1,8.8l-19.8,18.2l-18.8-18.8l-0.2-0.2C1678.9,399.1,1677.8,396.2,1677.8,393.2z"/>
	</g>
</g>
</svg>
