<?xml version="1.0" encoding="utf-8"?>
<!-- Generator: Adobe Illustrator 23.0.0, SVG Export Plug-In . SVG Version: 6.00 Build 0)  -->
<svg version="1.1" id="Layer_1" xmlns="http://www.w3.org/2000/svg" xmlns:xlink="http://www.w3.org/1999/xlink" x="0px" y="0px"
	 viewBox="0 0 100 100" style="enable-background:new 0 0 100 100;" xml:space="preserve">
<style type="text/css">
	.st0{enable-background:new    ;}
	.st1{clip-path:url(#SVGID_2_);enable-background:new    ;}
	.st2{fill:#858585;}
	.st3{fill:#8A8A8A;}
	.st4{clip-path:url(#SVGID_4_);enable-background:new    ;}
	.st5{clip-path:url(#SVGID_6_);enable-background:new    ;}
	.st6{clip-path:url(#SVGID_8_);enable-background:new    ;}
	.st7{fill:#F6F6F6;}
	.st8{clip-path:url(#SVGID_10_);enable-background:new    ;}
	.st9{clip-path:url(#SVGID_12_);enable-background:new    ;}
	.st10{clip-path:url(#SVGID_14_);enable-background:new    ;}
	.st11{clip-path:url(#SVGID_16_);enable-background:new    ;}
	.st12{clip-path:url(#SVGID_18_);enable-background:new    ;}
	.st13{clip-path:url(#SVGID_20_);enable-background:new    ;}
	.st14{clip-path:url(#SVGID_22_);enable-background:new    ;}
	.st15{clip-path:url(#SVGID_24_);enable-background:new    ;}
</style>
<g>
	<g class="st0">
		<g class="st0">
			<defs>
				<path id="SVGID_1_" class="st0" d="M58.3,16.8l3.7-0.3c-6.6,0.6-11.7,6.6-11.6,13.9c0.1,7.7,6,14,13.1,14l-3.7,0.3
					c-7.1,0-13-6.3-13.1-14C46.6,23.5,51.7,17.5,58.3,16.8z"/>
			</defs>
			<clipPath id="SVGID_2_">
				<use xlink:href="#SVGID_1_"  style="overflow:visible;"/>
			</clipPath>
			<g class="st1">
				<path class="st2" d="M58.3,16.8l3.7-0.3c-6.6,0.6-11.7,6.6-11.6,13.9c0,2.7,0.8,5.3,2.1,7.4l-3.7,0.3c-1.3-2.1-2-4.7-2.1-7.4
					C46.6,23.5,51.7,17.5,58.3,16.8"/>
				<path class="st3" d="M48.8,38.2l3.7-0.3c2.3,3.9,6.4,6.6,11.1,6.6l-3.7,0.3C55.2,44.7,51.1,42.1,48.8,38.2"/>
			</g>
		</g>
		<g class="st0">
			<defs>
				<path id="SVGID_3_" class="st0" d="M64.7,44.3L61,44.7c-0.4,0-0.7,0.1-1.1,0.1l3.7-0.3C63.9,44.4,64.3,44.4,64.7,44.3z"/>
			</defs>
			<clipPath id="SVGID_4_">
				<use xlink:href="#SVGID_3_"  style="overflow:visible;"/>
			</clipPath>
			<g class="st4">
				<path class="st3" d="M59.8,44.7l3.7-0.3c0.4,0,0.8,0,1.1-0.1L61,44.7C60.6,44.7,60.2,44.7,59.8,44.7"/>
			</g>
		</g>
		<g class="st0">
			<defs>
				<path id="SVGID_5_" class="st0" d="M58,12.9l3.7-0.3c0.5,0,1-0.1,1.4-0.1l-3.7,0.3C58.9,12.8,58.5,12.8,58,12.9z"/>
			</defs>
			<clipPath id="SVGID_6_">
				<use xlink:href="#SVGID_5_"  style="overflow:visible;"/>
			</clipPath>
			<g class="st5">
				<path class="st3" d="M58,12.9l3.7-0.3c0.5,0,1-0.1,1.4-0.1l-3.7,0.3C58.9,12.8,58.5,12.8,58,12.9"/>
			</g>
		</g>
		<g class="st0">
			<defs>
				<path id="SVGID_7_" class="st0" d="M65.1,48.3l-3.7,0.3c8.5-0.8,15.1-8.5,15-17.9c-0.1-9.9-7.7-17.9-16.9-17.9l3.7-0.3
					c9.2,0,16.7,8,16.9,17.9C80.1,39.8,73.5,47.5,65.1,48.3z"/>
			</defs>
			<clipPath id="SVGID_8_">
				<use xlink:href="#SVGID_7_"  style="overflow:visible;"/>
			</clipPath>
			<g class="st6">
				<path class="st3" d="M59.4,12.8l3.7-0.3c5.9,0,11.2,3.4,14.2,8.4l-3.7,0.3C70.6,16.2,65.4,12.8,59.4,12.8"/>
				<path class="st2" d="M73.6,21.2l3.7-0.3c1.6,2.8,2.6,6,2.7,9.5c0.1,9.4-6.5,17.1-15,17.9l-3.7,0.3c8.5-0.8,15.1-8.5,15-17.9
					C76.2,27.3,75.3,24,73.6,21.2"/>
			</g>
		</g>
		<g>
			<path class="st7" d="M59.4,12.8c9.2,0,16.7,8,16.9,17.9s-7.2,17.9-16.4,17.9c-9.2,0-16.7-8-16.9-17.9S50.2,12.8,59.4,12.8z
				 M59.8,44.7c7.1,0,12.9-6.3,12.8-14c-0.1-7.7-6-14-13.1-14c-7.1,0-12.9,6.3-12.8,14C46.8,38.5,52.7,44.7,59.8,44.7"/>
		</g>
	</g>
	<g class="st0">
		<g class="st0">
			<defs>
				<path id="SVGID_9_" class="st0" d="M4.8,48.2l3.7-0.3c0.1,0,0.1,0,0.2,0L5,48.2C4.9,48.2,4.9,48.2,4.8,48.2z"/>
			</defs>
			<clipPath id="SVGID_10_">
				<use xlink:href="#SVGID_9_"  style="overflow:visible;"/>
			</clipPath>
			<g class="st8">
				<path class="st3" d="M4.8,48.2l3.7-0.3c0.1,0,0.1,0,0.2,0L5,48.2C4.9,48.2,4.9,48.2,4.8,48.2"/>
			</g>
		</g>
		<g>
			<polygon class="st3" points="5,48.2 8.7,47.8 22.8,47.8 19,48.2 			"/>
		</g>
		<g class="st0">
			<defs>
				<path id="SVGID_11_" class="st0" d="M25,68.9l-3.7,0.3c0.9-0.1,1.7-0.9,1.7-2l3.7-0.3C26.7,68,26,68.8,25,68.9z"/>
			</defs>
			<clipPath id="SVGID_12_">
				<use xlink:href="#SVGID_11_"  style="overflow:visible;"/>
			</clipPath>
			<g class="st9">
				<path class="st2" d="M23,67.3l3.7-0.3c0,1-0.7,1.9-1.7,2l-3.7,0.3C22.3,69.2,23,68.3,23,67.3"/>
			</g>
		</g>
		<g class="st0">
			<defs>
				<path id="SVGID_13_" class="st0" d="M20.5,31.1l3.7-0.3c0.1,0,0.1,0,0.2,0l-3.7,0.3C20.6,31.1,20.5,31.1,20.5,31.1z"/>
			</defs>
			<clipPath id="SVGID_14_">
				<use xlink:href="#SVGID_13_"  style="overflow:visible;"/>
			</clipPath>
			<g class="st10">
				<path class="st3" d="M20.5,31.1l3.7-0.3c0.1,0,0.1,0,0.2,0l-3.7,0.3C20.6,31.1,20.5,31.1,20.5,31.1"/>
			</g>
		</g>
		<g>
			<polygon class="st2" points="22.8,52.2 26.5,51.8 26.7,66.9 23,67.3 			"/>
		</g>
		<g>
			<polygon class="st2" points="22.5,33.1 26.2,32.7 26.4,47.8 22.7,48.2 			"/>
		</g>
		<g class="st0">
			<defs>
				<path id="SVGID_15_" class="st0" d="M20.7,31.1l3.7-0.3c1,0,1.9,0.9,1.9,2l-3.7,0.3C22.5,32,21.7,31.1,20.7,31.1z"/>
			</defs>
			<clipPath id="SVGID_16_">
				<use xlink:href="#SVGID_15_"  style="overflow:visible;"/>
			</clipPath>
			<g class="st11">
				<path class="st3" d="M20.7,31.1l3.7-0.3c0.7,0,1.2,0.4,1.6,0.9L22.2,32C21.9,31.4,21.3,31.1,20.7,31.1"/>
				<path class="st2" d="M22.2,32l3.7-0.3c0.2,0.3,0.3,0.7,0.3,1.1l-3.7,0.3C22.5,32.7,22.4,32.3,22.2,32"/>
			</g>
		</g>
		<g>
			<polygon class="st3" points="22.7,48.2 26.4,47.8 40.5,47.8 36.8,48.2 			"/>
		</g>
		<g class="st0">
			<defs>
				<path id="SVGID_17_" class="st0" d="M40.7,51.8L37,52.1c0.9-0.1,1.7-0.9,1.7-2c0-1.1-0.9-2-1.9-2l3.7-0.3c1,0,1.9,0.9,1.9,2
					C42.4,50.9,41.6,51.7,40.7,51.8z"/>
			</defs>
			<clipPath id="SVGID_18_">
				<use xlink:href="#SVGID_17_"  style="overflow:visible;"/>
			</clipPath>
			<g class="st12">
				<path class="st3" d="M36.8,48.2l3.7-0.3c0.7,0,1.2,0.4,1.6,0.9l-3.7,0.3C38,48.6,37.4,48.2,36.8,48.2"/>
				<path class="st2" d="M38.3,49.1l3.7-0.3c0.2,0.3,0.3,0.7,0.3,1.1c0,1-0.7,1.9-1.7,2L37,52.1c0.9-0.1,1.7-0.9,1.7-2
					C38.6,49.8,38.5,49.4,38.3,49.1"/>
			</g>
		</g>
		<g>
			<path class="st7" d="M20.7,31.1c1,0,1.9,0.9,1.9,2l0.2,15.1h14c1,0,1.9,0.9,1.9,2c0,1.1-0.8,2-1.8,2h-14L23,67.3
				c0,1.1-0.8,2-1.8,2c-1,0-1.9-0.9-1.9-2l-0.2-15.1h-14c-1,0-1.9-0.9-1.9-2c0-1.1,0.8-2,1.8-2h14l-0.2-15.1
				C18.8,32,19.6,31.1,20.7,31.1z"/>
		</g>
		<g class="st0">
			<defs>
				<path id="SVGID_19_" class="st0" d="M55.1,57.1l3.7-0.3c-13.5,1.3-24,13.5-23.8,28.4c0,1-0.7,1.9-1.7,2l-3.7,0.3
					c0.9-0.1,1.7-0.9,1.7-2C31.1,70.6,41.6,58.4,55.1,57.1z"/>
			</defs>
			<clipPath id="SVGID_20_">
				<use xlink:href="#SVGID_19_"  style="overflow:visible;"/>
			</clipPath>
			<g class="st13">
				<path class="st2" d="M55.1,57.1l3.7-0.3c-13.5,1.3-24,13.5-23.8,28.4c0,1-0.7,1.9-1.7,2l-3.7,0.3c0.9-0.1,1.7-0.9,1.7-2
					C31.1,70.6,41.6,58.4,55.1,57.1"/>
			</g>
		</g>
		<g class="st0">
			<defs>
				<path id="SVGID_21_" class="st0" d="M54.8,53.2l3.7-0.3c0.9-0.1,1.7-0.1,2.6-0.1L57.4,53C56.5,53,55.6,53.1,54.8,53.2z"/>
			</defs>
			<clipPath id="SVGID_22_">
				<use xlink:href="#SVGID_21_"  style="overflow:visible;"/>
			</clipPath>
			<g class="st14">
				<path class="st3" d="M54.8,53.2l3.7-0.3c0.9-0.1,1.7-0.1,2.6-0.1L57.4,53C56.5,53,55.6,53.1,54.8,53.2"/>
			</g>
		</g>
		<g>
			<polygon class="st3" points="57.4,53 61.1,52.7 66.2,52.7 62.5,53 			"/>
		</g>
		<g class="st0">
			<defs>
				<path id="SVGID_23_" class="st0" d="M95.2,87.2l-3.7,0.3c0.9-0.1,1.7-0.9,1.7-2C92.9,67.6,79.1,53,62.5,53l3.7-0.3
					c16.6,0,30.3,14.6,30.6,32.5C96.8,86.2,96.1,87.1,95.2,87.2z"/>
			</defs>
			<clipPath id="SVGID_24_">
				<use xlink:href="#SVGID_23_"  style="overflow:visible;"/>
			</clipPath>
			<g class="st15">
				<path class="st3" d="M62.5,53l3.7-0.3c10.7,0,20.3,6.1,25.7,15.2l-3.7,0.3C82.8,59.1,73.3,53,62.5,53"/>
				<path class="st2" d="M88.3,68.3l3.7-0.3c3,5,4.7,10.9,4.8,17.2c0,1-0.7,1.9-1.7,2l-3.7,0.3c0.9-0.1,1.7-0.9,1.7-2
					C93,79.2,91.2,73.3,88.3,68.3"/>
			</g>
		</g>
		<g>
			<path class="st7" d="M62.5,53c16.6,0,30.3,14.6,30.6,32.5c0,1.1-0.8,2-1.8,2c-1,0-1.9-0.9-1.9-2C89.2,69.8,77.2,57,62.6,57h-5.1
				c-14.6,0-26.3,12.8-26.1,28.5c0,1.1-0.8,2-1.8,2c-1,0-1.9-0.9-1.9-2C27.4,67.6,40.7,53,57.4,53H62.5z"/>
		</g>
	</g>
</g>
</svg>
