<?xml version="1.0" encoding="utf-8"?>
<!-- Generator: Adobe Illustrator 23.0.0, SVG Export Plug-In . SVG Version: 6.00 Build 0)  -->
<svg version="1.1" id="Layer_1" xmlns="http://www.w3.org/2000/svg" xmlns:xlink="http://www.w3.org/1999/xlink" x="0px" y="0px"
	 viewBox="0 0 100 100" style="enable-background:new 0 0 100 100;" xml:space="preserve">
<style type="text/css">
	.st0{enable-background:new    ;}
	.st1{fill:#878787;}
	.st2{clip-path:url(#SVGID_2_);enable-background:new    ;}
	.st3{fill:#858585;}
	.st4{fill:#8A8A8A;}
	.st5{fill:#8F8F8F;}
	.st6{clip-path:url(#SVGID_4_);enable-background:new    ;}
	.st7{clip-path:url(#SVGID_6_);enable-background:new    ;}
	.st8{clip-path:url(#SVGID_8_);enable-background:new    ;}
	.st9{fill:#8E8E8E;}
	.st10{clip-path:url(#SVGID_10_);enable-background:new    ;}
	.st11{clip-path:url(#SVGID_12_);enable-background:new    ;}
	.st12{clip-path:url(#SVGID_14_);enable-background:new    ;}
	.st13{clip-path:url(#SVGID_16_);enable-background:new    ;}
	.st14{clip-path:url(#SVGID_18_);enable-background:new    ;}
	.st15{fill:#F2F2F2;}
	.st16{clip-path:url(#SVGID_20_);enable-background:new    ;}
	.st17{clip-path:url(#SVGID_22_);enable-background:new    ;}
</style>
<g>
	<g class="st0">
		<g>
			<polygon class="st1" points="7.8,32 10.7,31.8 10,65.2 7.1,65.4 			"/>
		</g>
		<g class="st0">
			<defs>
				<path id="SVGID_1_" class="st0" d="M7.1,65.4l2.9-0.2c-0.3,12.4,9,22.9,20.8,23.3l-2.9,0.2C16.1,88.3,6.8,77.8,7.1,65.4z"/>
			</defs>
			<clipPath id="SVGID_2_">
				<use xlink:href="#SVGID_1_"  style="overflow:visible;"/>
			</clipPath>
			<g class="st2">
				<path class="st3" d="M7.1,65.4l2.9-0.2c0,2.2,0.2,4.3,0.7,6.3l-2.9,0.2C7.3,69.7,7,67.6,7.1,65.4"/>
				<path class="st4" d="M7.8,71.7l2.9-0.2c0.6,2.5,1.7,4.9,3,7l-2.9,0.2C9.4,76.6,8.4,74.2,7.8,71.7"/>
				<path class="st5" d="M10.8,78.7l2.9-0.2c3.7,5.8,10,9.7,17.1,10l-2.9,0.2C20.7,88.5,14.5,84.5,10.8,78.7"/>
			</g>
		</g>
		<g class="st0">
			<defs>
				<path id="SVGID_3_" class="st0" d="M29.4,47.1l2.9-0.2c0.1,0,0.1,0,0.2,0l-2.9,0.2C29.5,47.1,29.5,47.1,29.4,47.1z"/>
			</defs>
			<clipPath id="SVGID_4_">
				<use xlink:href="#SVGID_3_"  style="overflow:visible;"/>
			</clipPath>
			<g class="st6">
				<path class="st5" d="M29.4,47.1l2.9-0.2c0.1,0,0.1,0,0.2,0l-2.9,0.2C29.5,47.1,29.5,47.1,29.4,47.1"/>
			</g>
		</g>
		<g class="st0">
			<defs>
				<path id="SVGID_5_" class="st0" d="M27.6,10.1l2.9-0.2C19.7,10.7,11,20.1,10.7,31.8L7.8,32C8.1,20.3,16.8,10.9,27.6,10.1z"/>
			</defs>
			<clipPath id="SVGID_6_">
				<use xlink:href="#SVGID_5_"  style="overflow:visible;"/>
			</clipPath>
			<g class="st7">
				<path class="st3" d="M27.6,10.1l2.9-0.2C19.7,10.7,11,20.1,10.7,31.8L7.8,32C8.1,20.3,16.8,10.9,27.6,10.1"/>
			</g>
		</g>
		<g class="st0">
			<defs>
				<path id="SVGID_7_" class="st0" d="M27.2,5.5l2.9-0.2c0.8-0.1,1.7-0.1,2.5,0l-2.9,0.2C28.9,5.4,28.1,5.4,27.2,5.5z"/>
			</defs>
			<clipPath id="SVGID_8_">
				<use xlink:href="#SVGID_7_"  style="overflow:visible;"/>
			</clipPath>
			<g class="st8">
				<path class="st5" d="M27.2,5.5l2.9-0.2c0.8-0.1,1.7-0.1,2.5,0l-2.9,0.2C28.9,5.4,28.1,5.4,27.2,5.5"/>
			</g>
		</g>
		<g>
			<polygon class="st9" points="29.6,47.1 32.5,46.9 49.3,47.5 46.4,47.7 			"/>
		</g>
		<g class="st0">
			<defs>
				<path id="SVGID_9_" class="st0" d="M51.1,72.4l-2.9,0.2c1.1-0.1,2-1,2-2.3l2.9-0.2C53.2,71.3,52.3,72.3,51.1,72.4z"/>
			</defs>
			<clipPath id="SVGID_10_">
				<use xlink:href="#SVGID_9_"  style="overflow:visible;"/>
			</clipPath>
			<g class="st10">
				<path class="st3" d="M50.3,70.3l2.9-0.2c0,1.2-0.9,2.2-2,2.3l-2.9,0.2C49.4,72.5,50.3,71.5,50.3,70.3"/>
			</g>
		</g>
		<g>
			<polygon class="st1" points="50.7,52.5 53.6,52.3 53.2,70.1 50.3,70.3 			"/>
		</g>
		<g class="st0">
			<defs>
				<path id="SVGID_11_" class="st0" d="M48.9,27.6l2.9-0.2c0.1,0,0.1,0,0.2,0l-2.9,0.2C49,27.6,48.9,27.6,48.9,27.6z"/>
			</defs>
			<clipPath id="SVGID_12_">
				<use xlink:href="#SVGID_11_"  style="overflow:visible;"/>
			</clipPath>
			<g class="st11">
				<path class="st5" d="M48.9,27.6l2.9-0.2c0.1,0,0.1,0,0.2,0l-2.9,0.2C49,27.6,48.9,27.6,48.9,27.6"/>
			</g>
		</g>
		<g>
			<polygon class="st1" points="51.2,30 54.1,29.8 53.7,47.6 50.8,47.8 			"/>
		</g>
		<g class="st0">
			<defs>
				<path id="SVGID_13_" class="st0" d="M49.1,27.6l2.9-0.2c1.2,0,2.2,1.1,2.2,2.4L51.2,30C51.3,28.7,50.3,27.6,49.1,27.6z"/>
			</defs>
			<clipPath id="SVGID_14_">
				<use xlink:href="#SVGID_13_"  style="overflow:visible;"/>
			</clipPath>
			<g class="st12">
				<path class="st5" d="M49.1,27.6l2.9-0.2c0.7,0,1.4,0.4,1.8,1l-2.9,0.2C50.5,28,49.8,27.6,49.1,27.6"/>
				<path class="st4" d="M50.8,28.6l2.9-0.2c0.1,0.2,0.2,0.5,0.3,0.7l-2.9,0.2C51.1,29.1,51,28.9,50.8,28.6"/>
				<path class="st3" d="M51.2,29.4l2.9-0.2c0.1,0.2,0.1,0.4,0.1,0.7L51.2,30C51.2,29.8,51.2,29.6,51.2,29.4"/>
			</g>
		</g>
		<g>
			<polygon class="st9" points="27.8,88.7 30.7,88.5 70.4,89.9 67.5,90.1 			"/>
		</g>
		<g class="st0">
			<defs>
				<path id="SVGID_15_" class="st0" d="M72.4,89.9l-2.9,0.2c-0.7,0-1.4,0.1-2.1,0l2.9-0.2C71.1,89.9,71.8,89.9,72.4,89.9z"/>
			</defs>
			<clipPath id="SVGID_16_">
				<use xlink:href="#SVGID_15_"  style="overflow:visible;"/>
			</clipPath>
			<g class="st13">
				<path class="st5" d="M67.5,90.1l2.9-0.2c0.7,0,1.4,0,2.1,0l-2.9,0.2C68.9,90.1,68.2,90.1,67.5,90.1"/>
			</g>
		</g>
		<g>
			<polygon class="st9" points="50.8,47.8 53.7,47.6 70.5,48.2 67.6,48.4 			"/>
		</g>
		<g class="st0">
			<defs>
				<path id="SVGID_17_" class="st0" d="M70.6,52.9l-2.9,0.2c1.1-0.1,2-1,2-2.3c0-1.3-0.9-2.4-2.1-2.4l2.9-0.2
					c1.2,0,2.2,1.1,2.1,2.4C72.6,51.8,71.7,52.8,70.6,52.9z"/>
			</defs>
			<clipPath id="SVGID_18_">
				<use xlink:href="#SVGID_17_"  style="overflow:visible;"/>
			</clipPath>
			<g class="st14">
				<path class="st5" d="M67.6,48.4l2.9-0.2c0.7,0,1.4,0.4,1.8,1l-2.9,0.2C69,48.9,68.3,48.4,67.6,48.4"/>
				<path class="st4" d="M69.4,49.5l2.9-0.2c0.1,0.2,0.2,0.5,0.3,0.7l-2.9,0.2C69.6,49.9,69.5,49.7,69.4,49.5"/>
				<path class="st3" d="M69.7,50.2l2.9-0.2c0.1,0.2,0.1,0.4,0.1,0.7c0,1.2-0.9,2.2-2,2.3l-2.9,0.2c1.1-0.1,2-1,2-2.3
					C69.8,50.6,69.7,50.4,69.7,50.2"/>
			</g>
		</g>
		<g>
			<path class="st15" d="M49.1,27.6c1.2,0,2.2,1.1,2.2,2.4l-0.4,17.8l16.8,0.6c1.2,0,2.2,1.1,2.1,2.4c0,1.3-1,2.3-2.2,2.3l-16.8-0.6
				l-0.4,17.8c0,1.3-1,2.3-2.3,2.3c-1.2,0-2.2-1.1-2.2-2.4l0.4-17.8l-16.8-0.6c-1.2,0-2.2-1.1-2.1-2.4c0-1.3,1-2.3,2.2-2.3l16.8,0.6
				l0.4-17.8C46.8,28.6,47.9,27.6,49.1,27.6z"/>
		</g>
		<g>
			<polygon class="st9" points="29.8,5.4 32.6,5.2 72.3,6.6 69.4,6.8 			"/>
		</g>
		<g class="st0">
			<defs>
				<path id="SVGID_19_" class="st0" d="M72.8,94.5l-2.9,0.2c13-0.9,23.5-12.2,23.8-26.3l2.9-0.2C96.2,82.3,85.8,93.6,72.8,94.5z"/>
			</defs>
			<clipPath id="SVGID_20_">
				<use xlink:href="#SVGID_19_"  style="overflow:visible;"/>
			</clipPath>
			<g class="st16">
				<path class="st3" d="M93.7,68.4l2.9-0.2c-0.3,14.1-10.8,25.4-23.8,26.3l-2.9,0.2C82.9,93.8,93.3,82.5,93.7,68.4"/>
			</g>
		</g>
		<g>
			<polygon class="st1" points="94.4,35 97.3,34.8 96.6,68.2 93.7,68.4 			"/>
		</g>
		<g>
			<path class="st15" d="M69.4,6.8C83.5,7.3,94.8,19.9,94.4,35l-0.8,33.4c-0.3,15-12.1,26.8-26.3,26.4l-39.6-1.4
				C13.6,92.9,2.3,80.3,2.7,65.2l0.8-33.4C3.8,16.8,15.6,5,29.8,5.4L69.4,6.8z M89.3,68.2L90,34.8c0.3-12.5-9-22.9-20.8-23.3
				l-39.6-1.4C17.9,9.7,8.1,19.5,7.8,32L7.1,65.4c-0.3,12.4,9,22.9,20.8,23.3l39.6,1.4C79.2,90.5,89,80.7,89.3,68.2"/>
		</g>
		<g class="st0">
			<defs>
				<path id="SVGID_21_" class="st0" d="M69.4,6.8l2.9-0.2c14.2,0.5,25.4,13.1,25.1,28.1L94.4,35C94.8,19.9,83.5,7.3,69.4,6.8z"/>
			</defs>
			<clipPath id="SVGID_22_">
				<use xlink:href="#SVGID_21_"  style="overflow:visible;"/>
			</clipPath>
			<g class="st17">
				<path class="st5" d="M69.4,6.8l2.9-0.2c8.6,0.3,16.1,5,20.6,12.1L90,18.9C85.4,11.8,77.9,7.1,69.4,6.8"/>
				<path class="st4" d="M90,18.9l2.9-0.2c1.6,2.6,2.9,5.4,3.6,8.5l-2.9,0.2C92.8,24.3,91.6,21.4,90,18.9"/>
				<path class="st3" d="M93.6,27.3l2.9-0.2c0.6,2.4,0.9,5,0.8,7.6L94.4,35C94.5,32.3,94.2,29.8,93.6,27.3"/>
			</g>
		</g>
	</g>
</g>
</svg>
