<?xml version="1.0" encoding="utf-8"?>
<!-- Generator: Adobe Illustrator 23.0.0, SVG Export Plug-In . SVG Version: 6.00 Build 0)  -->
<svg version="1.1" id="Layer_1" xmlns="http://www.w3.org/2000/svg" xmlns:xlink="http://www.w3.org/1999/xlink" x="0px" y="0px"
	 viewBox="0 0 100 100" style="enable-background:new 0 0 100 100;" xml:space="preserve">
<style type="text/css">
	.st0{enable-background:new    ;}
	.st1{fill:#B21117;}
	.st2{fill:#98080C;}
	.st3{fill:#8D0406;}
	.st4{clip-path:url(#SVGID_2_);enable-background:new    ;}
	.st5{fill:#9E9E9E;}
	.st6{fill:#A3A3A3;}
	.st7{fill:#919191;}
	.st8{fill:#828282;}
	.st9{fill:#B4B4B4;}
	.st10{fill:#D2181F;}
	.st11{fill:#DFDFDF;}
	.st12{clip-path:url(#SVGID_4_);enable-background:new    ;}
	.st13{fill:#A90F14;}
	.st14{fill:#A50D12;}
	.st15{fill:#A10C11;}
	.st16{fill:#A4A4A4;}
	.st17{clip-path:url(#SVGID_6_);enable-background:new    ;}
	.st18{fill:#858585;}
	.st19{clip-path:url(#SVGID_8_);enable-background:new    ;}
	.st20{fill:#8F0507;}
	.st21{fill:#920609;}
	.st22{fill:#96080B;}
	.st23{fill:#9A090D;}
	.st24{fill:#9E0B0F;}
	.st25{fill:#B1B1B1;}
	.st26{fill:#818181;}
	.st27{fill:#808080;}
	.st28{clip-path:url(#SVGID_10_);enable-background:new    ;}
	.st29{fill:#8A8A8A;}
	.st30{fill:#8F8F8F;}
	.st31{fill:#949494;}
	.st32{fill:#999999;}
	.st33{fill:#A8A8A8;}
</style>
<g>
	<g class="st0">
		<g>
			<polygon class="st1" points="72.2,40.1 68.6,38.1 70.7,37.8 74.3,39.8 			"/>
		</g>
		<g>
			<polygon class="st2" points="74.3,39.8 70.7,37.8 77.8,20 81.4,21.9 			"/>
		</g>
		<g>
			<polygon class="st3" points="81.4,21.9 77.8,20 77.8,18.3 81.4,20.2 			"/>
		</g>
		<g class="st0">
			<defs>
				<path id="SVGID_1_" class="st0" d="M64,51.1c0.1,0.1,0.3,0.2,0.4,0.2c0.1,0.1,0.3,0.2,0.4,0.2c0.3,0.2,0.6,0.3,0.9,0.5
					c0.6,0.3,1.2,0.7,1.8,1c-1.4-0.4-2.7-0.9-3.9-1.6l-3.6-2C61.4,50.2,62.7,50.7,64,51.1z"/>
			</defs>
			<clipPath id="SVGID_2_">
				<use xlink:href="#SVGID_1_"  style="overflow:visible;"/>
			</clipPath>
			<g class="st4">
				<path class="st5" d="M63.7,51.5l-3.6-2c0.2,0.1,0.4,0.2,0.7,0.3l3.6,2C64.2,51.7,64,51.6,63.7,51.5"/>
				<path class="st6" d="M64.4,51.9l-3.6-2c1,0.5,2.1,0.9,3.2,1.2l3.6,2C66.5,52.8,65.4,52.4,64.4,51.9"/>
			</g>
		</g>
		<g>
			<polygon class="st7" points="72.2,40.1 68.6,38.1 75.7,20.5 79.3,22.5 			"/>
		</g>
		<g>
			<polygon class="st1" points="70,23.8 66.4,21.8 75.7,20.5 79.3,22.5 			"/>
		</g>
		<g>
			<polygon class="st8" points="70,23.8 66.4,21.8 66.4,19.9 70,21.9 			"/>
		</g>
		<g>
			<polygon class="st9" points="70,21.9 66.4,19.9 77.8,18.3 81.4,20.2 			"/>
		</g>
		<g>
			<path class="st10" d="M75.9,4.6c12.5-1.8,22.7,7.8,22.6,21.3c0,13.5-10.2,25.9-22.7,27.7c-2.9,0.4-5.7,0.2-8.2-0.5
				c-1.5-0.4-3-1-4.3-1.8c-2.6-1.5-4.8-3.6-6.4-6.1c-0.8-1.2-1.5-2.6-2.1-4c-1-2.7-1.6-5.7-1.6-8.9c0-0.3,0-0.7,0-1
				c0.1-1.7,0.3-3.4,0.7-5.1C56.4,15.2,65.3,6.1,75.9,4.6z M81.4,21.9l0-1.7L70,21.9l0,1.9l9.4-1.3l-7.2,17.6l2.2-0.3L81.4,21.9"/>
		</g>
		<g>
			<polygon class="st11" points="81.4,20.2 81.4,21.9 74.3,39.8 72.2,40.1 79.3,22.5 70,23.8 70,21.9 			"/>
		</g>
		<g class="st0">
			<defs>
				<path id="SVGID_3_" class="st0" d="M84.5,4.8l3.6,2C84.5,4.8,80.4,4,75.9,4.6l-3.6-2C76.8,2.1,81,2.9,84.5,4.8z"/>
			</defs>
			<clipPath id="SVGID_4_">
				<use xlink:href="#SVGID_3_"  style="overflow:visible;"/>
			</clipPath>
			<g class="st12">
				<path class="st13" d="M75.9,4.6l-3.6-2c2.8-0.4,5.4-0.2,7.8,0.4l3.6,2C81.3,4.4,78.7,4.3,75.9,4.6"/>
				<path class="st14" d="M83.8,5l-3.6-2c1.3,0.3,2.4,0.8,3.6,1.3l3.6,2C86.2,5.8,85,5.4,83.8,5"/>
				<path class="st15" d="M87.4,6.4l-3.6-2c0.2,0.1,0.5,0.2,0.7,0.4l3.6,2C87.8,6.6,87.6,6.5,87.4,6.4"/>
			</g>
		</g>
		<g>
			<polygon class="st16" points="28.8,89.8 25.2,87.9 59.7,49.3 63.3,51.3 			"/>
		</g>
		<g class="st0">
			<defs>
				<path id="SVGID_5_" class="st0" d="M25.9,97.3l-3.6-2c-0.7-0.4-1.1-1-1.1-1.8l3.6,2C24.9,96.3,25.3,97,25.9,97.3z"/>
			</defs>
			<clipPath id="SVGID_6_">
				<use xlink:href="#SVGID_5_"  style="overflow:visible;"/>
			</clipPath>
			<g class="st17">
				<path class="st18" d="M25.9,97.3l-3.6-2c-0.7-0.4-1.1-1-1.1-1.8l3.6,2C24.9,96.3,25.3,97,25.9,97.3"/>
			</g>
		</g>
		<g class="st0">
			<defs>
				<path id="SVGID_7_" class="st0" d="M63.7,51.5l-3.6-2c-0.1-0.1-0.3-0.2-0.4-0.2c-2.6-1.5-4.8-3.6-6.4-6.1
					c-0.8-1.2-1.5-2.6-2.1-4c-1-2.7-1.6-5.7-1.6-8.9c0-0.3,0-0.7,0-1c0.1-1.7,0.3-3.4,0.7-5.1c2.5-11,11.4-20.1,22-21.6l3.6,2
					c-10.6,1.5-19.5,10.6-22,21.6c-0.4,1.7-0.6,3.4-0.7,5.1c0,0.3,0,0.6,0,1c0,3.2,0.6,6.2,1.6,8.9c0.6,1.4,1.2,2.8,2.1,4
					c1.7,2.5,3.9,4.6,6.4,6.1C63.5,51.4,63.6,51.4,63.7,51.5z"/>
			</defs>
			<clipPath id="SVGID_8_">
				<use xlink:href="#SVGID_7_"  style="overflow:visible;"/>
			</clipPath>
			<g class="st19">
				<path class="st20" d="M63.7,51.5l-3.6-2c-0.1-0.1-0.3-0.2-0.4-0.2c-2.6-1.5-4.8-3.6-6.4-6.1c-0.8-1.2-1.5-2.6-2.1-4
					c-1-2.7-1.6-5.7-1.6-8.9c0-0.3,0-0.7,0-1c0.1-1.7,0.3-3.4,0.7-5.1c0.3-1.2,0.6-2.4,1-3.5l3.6,2c-0.4,1.2-0.8,2.3-1,3.5
					c-0.4,1.7-0.6,3.4-0.7,5.1c0,0.3,0,0.6,0,1c0,3.2,0.6,6.2,1.6,8.9c0.6,1.4,1.2,2.8,2.1,4c1.7,2.5,3.9,4.6,6.4,6.1
					C63.5,51.4,63.6,51.4,63.7,51.5"/>
				<path class="st21" d="M55,22.7l-3.6-2c0.5-1.3,1.1-2.6,1.7-3.8l3.6,2C56,20.1,55.4,21.4,55,22.7"/>
				<path class="st22" d="M56.7,18.9l-3.6-2c0.6-1,1.2-2,1.9-3l3.6,2C57.9,16.8,57.2,17.8,56.7,18.9"/>
				<path class="st23" d="M58.5,15.9l-3.6-2c0.6-0.9,1.3-1.8,2-2.6l3.6,2C59.8,14.1,59.2,14.9,58.5,15.9"/>
				<path class="st24" d="M60.6,13.3l-3.6-2c0.7-0.8,1.5-1.6,2.3-2.3l3.6,2C62.1,11.7,61.3,12.4,60.6,13.3"/>
				<path class="st15" d="M62.9,10.9l-3.6-2c0.9-0.8,1.8-1.5,2.7-2.2l3.6,2C64.7,9.4,63.7,10.1,62.9,10.9"/>
				<path class="st14" d="M65.6,8.8l-3.6-2c1.2-0.8,2.4-1.5,3.7-2.1l3.6,2C68,7.2,66.8,8,65.6,8.8"/>
				<path class="st13" d="M69.3,6.6l-3.6-2c2.1-1,4.3-1.7,6.6-2l3.6,2C73.6,5,71.4,5.7,69.3,6.6"/>
			</g>
		</g>
		<g>
			<polygon class="st25" points="25.5,57.3 21.9,55.4 51.2,39.2 54.8,41.2 			"/>
		</g>
		<g>
			<polygon class="st26" points="24.8,95.5 21.2,93.5 19,59.5 22.6,61.5 			"/>
		</g>
		<g>
			<polygon class="st27" points="22.6,61.5 19,59.5 1.8,34.6 5.4,36.5 			"/>
		</g>
		<g>
			<polygon class="st9" points="7.5,32.1 3.9,30.2 50.3,24.3 53.9,26.2 			"/>
		</g>
		<g>
			<path class="st11" d="M7.5,32.1l46.4-5.9c-0.4,1.7-0.6,3.4-0.7,5.1l-41.9,5.4l14.2,20.6l29.4-16.1c0.6,1.4,1.2,2.8,2.1,4L27,61.6
				l1.8,28.2l34.5-38.5c1.3,0.8,2.8,1.4,4.3,1.8l-39,43.5c-0.5,0.5-1,0.8-1.6,0.9c-0.3,0-0.6,0-0.8-0.1c-0.9-0.3-1.3-1.1-1.4-1.9
				l-2.2-34l-17.1-25c-0.5-0.7-0.5-1.8-0.1-2.7C5.8,32.9,6.6,32.3,7.5,32.1z"/>
		</g>
		<g class="st0">
			<defs>
				<path id="SVGID_9_" class="st0" d="M5.4,36.5l-3.6-2c-0.5-0.7-0.5-1.8-0.1-2.7C2.2,31,3,30.3,3.9,30.2l3.6,2
					c-0.9,0.1-1.7,0.8-2.1,1.7C4.9,34.8,4.9,35.8,5.4,36.5z"/>
			</defs>
			<clipPath id="SVGID_10_">
				<use xlink:href="#SVGID_9_"  style="overflow:visible;"/>
			</clipPath>
			<g class="st28">
				<path class="st18" d="M5.4,36.5l-3.6-2c-0.4-0.6-0.5-1.6-0.2-2.4l3.6,2C4.9,34.9,5,35.9,5.4,36.5"/>
				<path class="st29" d="M5.2,34.1l-3.6-2c0-0.1,0.1-0.2,0.1-0.3c0-0.1,0.1-0.1,0.1-0.2l3.6,2c0,0.1-0.1,0.1-0.1,0.2
					C5.3,33.9,5.3,34,5.2,34.1"/>
				<path class="st30" d="M5.4,33.7l-3.6-2c0.1-0.1,0.1-0.2,0.2-0.3l3.6,2C5.5,33.4,5.5,33.6,5.4,33.7"/>
				<path class="st31" d="M5.6,33.3l-3.6-2c0.1-0.1,0.1-0.2,0.2-0.3l3.6,2C5.8,33.1,5.7,33.2,5.6,33.3"/>
				<path class="st32" d="M5.8,33.1l-3.6-2c0.1-0.1,0.2-0.2,0.3-0.3l3.6,2C6,32.9,5.9,33,5.8,33.1"/>
				<path class="st5" d="M6.1,32.8l-3.6-2c0.1-0.1,0.2-0.2,0.3-0.2l3.6,2C6.3,32.6,6.2,32.7,6.1,32.8"/>
				<path class="st6" d="M6.4,32.6l-3.6-2c0.1-0.1,0.3-0.2,0.4-0.2l3.6,2C6.6,32.4,6.5,32.5,6.4,32.6"/>
				<path class="st33" d="M6.8,32.3l-3.6-2c0.2-0.1,0.5-0.2,0.7-0.2l3.6,2C7.2,32.2,7,32.2,6.8,32.3"/>
			</g>
		</g>
	</g>
</g>
</svg>
