<?xml version="1.0" encoding="utf-8"?>
<!-- Generator: Adobe Illustrator 23.0.0, SVG Export Plug-In . SVG Version: 6.00 Build 0)  -->
<svg version="1.1" id="Layer_1" xmlns="http://www.w3.org/2000/svg" xmlns:xlink="http://www.w3.org/1999/xlink" x="0px" y="0px"
	 viewBox="0 0 100 100" style="enable-background:new 0 0 100 100;" xml:space="preserve">
<style type="text/css">
	.st0{enable-background:new    ;}
	.st1{fill:#929292;}
	.st2{fill:#838383;}
	.st3{fill:#EDEDED;}
</style>
<g>
	<g class="st0">
		<g>
			<polygon class="st1" points="87.6,90 82.8,89.7 83.3,89.6 88.2,90 			"/>
		</g>
		<g>
			<polygon class="st2" points="88.2,90 83.3,89.6 83.2,32.2 88,32.5 			"/>
		</g>
		<g>
			<polygon class="st1" points="67.4,90.5 62.5,90.1 82.8,89.7 87.6,90 			"/>
		</g>
		<g>
			<polygon class="st1" points="62.6,90.6 57.8,90.2 58.4,90.2 63.2,90.6 			"/>
		</g>
		<g>
			<polygon class="st1" points="66.6,27.7 61.8,27.4 86.7,26.8 91.6,27.2 			"/>
		</g>
		<g>
			<polygon class="st2" points="63.2,90.6 58.4,90.2 58.2,27.4 63.1,27.8 			"/>
		</g>
		<g>
			<polygon class="st2" points="63.1,27.8 58.2,27.4 58.2,8.3 63,8.7 			"/>
		</g>
		<g>
			<polygon class="st1" points="42.4,91.1 37.6,90.7 57.8,90.2 62.6,90.6 			"/>
		</g>
		<g>
			<polygon class="st2" points="37.7,91.2 32.8,90.8 32.7,55.8 37.6,56.1 			"/>
		</g>
		<g>
			<polygon class="st2" points="38.2,51.5 33.3,51.1 33.2,4.2 38,4.6 			"/>
		</g>
		<g>
			<polygon class="st1" points="38,4.6 33.2,4.2 61.7,3.6 66.6,4 			"/>
		</g>
		<g>
			<polygon class="st1" points="17.5,91.6 12.6,91.2 32.8,90.8 37.7,91.2 			"/>
		</g>
		<g>
			<polygon class="st2" points="13.3,97 8.5,96.6 8.3,51.7 13.2,52.1 			"/>
		</g>
		<g>
			<path class="st3" d="M66.6,27.7l25-0.6l0.2,68.1l-25,0.6l-3.6,0.1l-20.8,0.5l-4.2,0.1l-25,0.6l-0.1-44.9l25-0.6L38,4.6L66.6,4
				L66.6,27.7z M63.1,27.8L63,8.7L42.2,9.1l0.1,42.3l0.1,39.6l20.2-0.5l0.6,0L63.1,27.8 M88.2,90L88,32.5L67.2,33l0.2,57.5L87.6,90
				L88.2,90 M37.7,91.2l-0.1-35l-20.2,0.5l0.1,35L37.7,91.2"/>
		</g>
		<g>
			<polygon class="st1" points="13.2,52.1 8.3,51.7 33.3,51.1 38.2,51.5 			"/>
		</g>
	</g>
</g>
</svg>
