<?xml version="1.0" encoding="utf-8"?>
<!-- Generator: Adobe Illustrator 23.0.0, SVG Export Plug-In . SVG Version: 6.00 Build 0)  -->
<svg version="1.1" id="Layer_1" xmlns="http://www.w3.org/2000/svg" xmlns:xlink="http://www.w3.org/1999/xlink" x="0px" y="0px"
	 viewBox="0 0 17.01 17.01" style="enable-background:new 0 0 17.01 17.01;" xml:space="preserve">
<style type="text/css">
	.st0{fill:#EBEBEC;}
</style>
<path class="st0" d="M15.73,4.01c-0.09-0.05-0.18-0.07-0.27-0.08c0,0-0.12-0.01-0.12-0.01H1.67L1.55,3.93
	C1.45,3.94,1.36,3.96,1.27,4.01C1.04,4.14,0.9,4.38,0.9,4.65v7.71c0,0.41,0.33,0.74,0.74,0.74h5.73h2.29h5.73
	c0.41,0,0.74-0.33,0.74-0.74V4.65C16.11,4.38,15.97,4.14,15.73,4.01z M14.6,4.26l-3.64,2.27L8.7,7.95C8.64,7.98,8.57,8,8.5,8
	c-0.07,0-0.14-0.02-0.2-0.06L6.05,6.53L2.41,4.26H14.6z M1.24,12.36V4.65c0-0.14,0.07-0.27,0.2-0.34c0,0,0.01-0.01,0.01-0.01
	c0.14-0.06,0.28-0.03,0.28-0.03S4.4,5.94,5.23,6.44l1.1,0.69L1.27,12.5C1.25,12.46,1.24,12.41,1.24,12.36z M15.38,12.75H9.41H7.59
	H1.63c-0.02,0-0.04-0.01-0.06-0.01l5.09-5.4l1.45,0.9c0.12,0.08,0.26,0.11,0.4,0.11c0.14,0,0.28-0.03,0.4-0.11l1.45-0.9l5.09,5.4
	C15.42,12.74,15.4,12.75,15.38,12.75z M15.77,12.36c0,0.05-0.01,0.1-0.03,0.14l-5.06-5.37l1.1-0.69c0.83-0.5,3.59-2.13,3.59-2.13
	s0.14-0.03,0.18,0c0,0,0.01,0,0.01,0.01c0.13,0.07,0.2,0.2,0.2,0.34V12.36z"/>
</svg>
