<?xml version="1.0" encoding="utf-8"?>
<!-- Generator: Adobe Illustrator 23.0.0, SVG Export Plug-In . SVG Version: 6.00 Build 0)  -->
<svg version="1.1" id="Layer_1" xmlns="http://www.w3.org/2000/svg" xmlns:xlink="http://www.w3.org/1999/xlink" x="0px" y="0px"
	 viewBox="0 0 17.01 17.01" style="enable-background:new 0 0 17.01 17.01;" xml:space="preserve">
<style type="text/css">
	.st0{fill:#0E4C5C;}
</style>
<g>
	<path class="st0" d="M11.82,1.58H5.19C2.83,1.58,0.9,3.5,0.9,5.87v5.27c0,2.37,1.93,4.29,4.29,4.29h6.62
		c2.37,0,4.29-1.93,4.29-4.29V5.87C16.11,3.5,14.18,1.58,11.82,1.58z M15.37,11.14c0,1.96-1.6,3.56-3.56,3.56H5.19
		c-1.96,0-3.56-1.6-3.56-3.56V5.87c0-1.96,1.6-3.56,3.56-3.56h6.62c1.96,0,3.56,1.6,3.56,3.56V11.14z"/>
	<path class="st0" d="M11.68,8.14H8.87V5.33c0-0.2-0.16-0.37-0.37-0.37c-0.2,0-0.37,0.16-0.37,0.37v2.81H5.33
		c-0.2,0-0.37,0.16-0.37,0.37c0,0.2,0.16,0.37,0.37,0.37h2.81v2.81c0,0.2,0.16,0.37,0.37,0.37c0.2,0,0.37-0.16,0.37-0.37V8.87h2.81
		c0.2,0,0.37-0.16,0.37-0.37C12.05,8.3,11.88,8.14,11.68,8.14z"/>
</g>
</svg>
