<?xml version="1.0" encoding="utf-8"?>
<!-- Generator: Adobe Illustrator 23.0.0, SVG Export Plug-In . SVG Version: 6.00 Build 0)  -->
<svg version="1.1" id="Layer_1" xmlns="http://www.w3.org/2000/svg" xmlns:xlink="http://www.w3.org/1999/xlink" x="0px" y="0px"
	 viewBox="0 0 17.01 17.01" style="enable-background:new 0 0 17.01 17.01;" xml:space="preserve">
<style type="text/css">
	.st0{fill:#0E4C5C;}
</style>
<g>
	<g>
		<g>
			<path class="st0" d="M9.14,16.15H7.86c-0.63,0-1.16-0.45-1.27-1.07l-0.13-0.79c-0.2-0.07-0.39-0.15-0.58-0.24l-0.66,0.47
				c-0.49,0.35-1.21,0.3-1.65-0.14l-0.9-0.9c-0.45-0.44-0.5-1.14-0.14-1.65l0.46-0.64c-0.1-0.2-0.18-0.4-0.26-0.61l-0.8-0.14
				C1.3,10.34,0.85,9.8,0.85,9.17V7.9c0-0.63,0.45-1.16,1.07-1.27L2.7,6.5c0.07-0.21,0.16-0.42,0.25-0.62L2.48,5.22
				C2.11,4.71,2.17,4.01,2.62,3.56l0.91-0.9c0.42-0.43,1.16-0.49,1.65-0.14l0.64,0.46c0.2-0.1,0.4-0.18,0.61-0.26l0.14-0.8
				c0.1-0.62,0.64-1.07,1.27-1.07h1.28c0.63,0,1.16,0.45,1.27,1.07l0.13,0.78c0.22,0.08,0.44,0.17,0.65,0.27l0.65-0.47
				c0.49-0.35,1.21-0.3,1.65,0.14l0.9,0.9c0.45,0.44,0.5,1.14,0.14,1.65l-0.47,0.65c0.09,0.2,0.18,0.4,0.25,0.61l0.79,0.13
				c0.63,0.1,1.07,0.64,1.07,1.27v1.27c0,0.63-0.45,1.16-1.07,1.27l-0.79,0.13c-0.07,0.2-0.16,0.41-0.25,0.61l0.47,0.65
				c0.37,0.51,0.31,1.21-0.14,1.65l-0.9,0.9c-0.43,0.44-1.16,0.49-1.65,0.14l-0.65-0.46c-0.2,0.09-0.4,0.18-0.61,0.25l-0.13,0.79
				C10.31,15.7,9.77,16.15,9.14,16.15z M5.82,13.15l0.21,0.11c0.28,0.15,0.58,0.27,0.89,0.37l0.23,0.07l0.21,1.25
				c0.04,0.25,0.25,0.43,0.51,0.43h1.28c0.25,0,0.46-0.18,0.51-0.43l0.21-1.25l0.23-0.07c0.32-0.1,0.63-0.23,0.92-0.38l0.21-0.11
				l1.03,0.74c0.2,0.14,0.48,0.12,0.66-0.06l0.9-0.9c0.18-0.18,0.2-0.45,0.06-0.66l-0.74-1.04l0.11-0.21
				c0.16-0.31,0.29-0.62,0.38-0.92l0.07-0.23l1.26-0.21c0.25-0.04,0.43-0.25,0.43-0.51V7.87c0-0.25-0.17-0.46-0.42-0.51l0,0
				l-1.25-0.21l-0.07-0.23C13.54,6.6,13.41,6.29,13.25,6l-0.11-0.21l0.74-1.03c0.15-0.2,0.12-0.48-0.05-0.66l-0.91-0.91
				c-0.17-0.18-0.46-0.2-0.66-0.06l-1.04,0.74l-0.21-0.11c-0.31-0.16-0.63-0.3-0.96-0.39L9.83,3.3L9.62,2.05
				C9.58,1.81,9.37,1.63,9.12,1.63H7.84c-0.25,0-0.46,0.18-0.51,0.43L7.12,3.32L6.89,3.39c-0.32,0.1-0.62,0.23-0.92,0.39L5.76,3.89
				L4.73,3.15C4.54,3.01,4.24,3.03,4.07,3.2L3.16,4.11c-0.18,0.18-0.2,0.45-0.06,0.66l0.74,1.05L3.74,6.03
				c-0.15,0.29-0.28,0.6-0.38,0.92L3.3,7.18L2.05,7.39C1.81,7.43,1.63,7.64,1.63,7.9v1.28c0,0.25,0.18,0.46,0.43,0.51l1.27,0.22
				l0.07,0.23c0.1,0.31,0.23,0.62,0.39,0.92l0.11,0.21l-0.74,1.03c-0.14,0.2-0.12,0.48,0.06,0.66l0.91,0.91
				c0.17,0.17,0.46,0.2,0.65,0.06L5.82,13.15z"/>
		</g>
	</g>
	<g>
		<path class="st0" d="M8.51,12.02c-1.94,0-3.52-1.58-3.52-3.52c0-1.94,1.58-3.52,3.52-3.52c1.94,0,3.52,1.58,3.52,3.52
			C12.03,10.44,10.45,12.02,8.51,12.02z M8.51,5.75c-1.52,0-2.75,1.23-2.75,2.75c0,1.52,1.23,2.75,2.75,2.75
			c1.52,0,2.75-1.23,2.75-2.75C11.25,6.99,10.02,5.75,8.51,5.75z"/>
	</g>
</g>
</svg>
