<?xml version="1.0" encoding="utf-8"?>
<!-- Generator: Adobe Illustrator 23.0.0, SVG Export Plug-In . SVG Version: 6.00 Build 0)  -->
<svg version="1.1" id="Layer_1" xmlns="http://www.w3.org/2000/svg" xmlns:xlink="http://www.w3.org/1999/xlink" x="0px" y="0px"
	 viewBox="0 0 19.4 19.3" style="enable-background:new 0 0 19.4 19.3;" xml:space="preserve">
<style type="text/css">
	.st0{fill:#B6B7B6;}
</style>
<g>
	<g>
		<path class="st0" d="M9.7,18.8c-5,0-9.2-4.1-9.2-9.2c0-5,4.1-9.2,9.2-9.2s9.2,4.1,9.2,9.2C18.8,14.7,14.7,18.8,9.7,18.8z M9.7,2.1
			c-4.2,0-7.6,3.4-7.6,7.6s3.4,7.6,7.6,7.6c4.2,0,7.6-3.4,7.6-7.6S13.8,2.1,9.7,2.1z"/>
	</g>
	<g>
		<polygon class="st0" points="13.5,12.2 10.9,9.7 13.5,7.1 12.2,5.9 9.7,8.4 7.1,5.9 5.9,7.1 8.4,9.7 5.9,12.2 7.1,13.5 9.7,10.9 
			12.2,13.5 		"/>
	</g>
</g>
</svg>
