<?xml version="1.0" encoding="utf-8"?>
<!-- Generator: Adobe Illustrator 23.0.0, SVG Export Plug-In . SVG Version: 6.00 Build 0)  -->
<svg version="1.1" id="Layer_1" xmlns="http://www.w3.org/2000/svg" xmlns:xlink="http://www.w3.org/1999/xlink" x="0px" y="0px"
	 viewBox="0 0 17.01 17.01" style="enable-background:new 0 0 17.01 17.01;" xml:space="preserve">
<style type="text/css">
	.st0{fill:#0E4C5C;}
</style>
<g>
	<g id="XMLID_81_">
		<g id="XMLID_58_">
			<g id="XMLID_67_">
				<path class="st0" d="M10.65,8.26c-1.64,0-2.97-1.33-2.97-2.97s1.33-2.97,2.97-2.97c1.64,0,2.97,1.33,2.97,2.97
					S12.29,8.26,10.65,8.26z M10.65,2.97c-1.28,0-2.32,1.04-2.32,2.32S9.37,7.6,10.65,7.6c1.28,0,2.32-1.04,2.32-2.32
					S11.93,2.97,10.65,2.97z"/>
			</g>
			<g id="XMLID_59_">
				<path class="st0" d="M16.17,14.7c-0.18,0-0.33-0.15-0.33-0.33c0-2.61-2.12-4.73-4.73-4.73h-0.92c-2.61,0-4.73,2.12-4.73,4.73
					c0,0.18-0.15,0.33-0.33,0.33c-0.18,0-0.33-0.15-0.33-0.33c0-2.97,2.42-5.39,5.39-5.39h0.92c2.97,0,5.39,2.42,5.39,5.39
					C16.5,14.55,16.35,14.7,16.17,14.7z"/>
			</g>
		</g>
	</g>
	<path class="st0" d="M6.52,8.17H4.01V5.66c0-0.18-0.15-0.33-0.33-0.33S3.35,5.48,3.35,5.66v2.51H0.84c-0.18,0-0.33,0.15-0.33,0.33
		s0.15,0.33,0.33,0.33h2.51v2.51c0,0.18,0.15,0.33,0.33,0.33s0.33-0.15,0.33-0.33V8.83h2.51c0.18,0,0.33-0.15,0.33-0.33
		S6.7,8.17,6.52,8.17z"/>
</g>
</svg>
