<?xml version="1.0" encoding="utf-8"?>
<!-- Generator: Adobe Illustrator 23.0.0, SVG Export Plug-In . SVG Version: 6.00 Build 0)  -->
<svg version="1.1" id="Layer_1" xmlns="http://www.w3.org/2000/svg" xmlns:xlink="http://www.w3.org/1999/xlink" x="0px" y="0px"
	 viewBox="0 0 17.01 17.01" style="enable-background:new 0 0 17.01 17.01;" xml:space="preserve">
<style type="text/css">
	.st0{fill:#EBEBEC;}
</style>
<g>
	<path class="st0" d="M8.29,10.78c1.31,0,2.37-1.06,2.37-2.37S9.6,6.03,8.29,6.03c-1.31,0-2.37,1.06-2.37,2.37
		S6.98,10.78,8.29,10.78z M8.29,6.56c1.02,0,1.85,0.83,1.85,1.85s-0.83,1.85-1.85,1.85c-1.02,0-1.85-0.83-1.85-1.85
		S7.27,6.56,8.29,6.56z"/>
	<path class="st0" d="M5.02,5.81c0.15-0.19,0.32-0.37,0.5-0.53C5.43,5.3,5.34,5.31,5.25,5.31c-1.02,0-1.85-0.83-1.85-1.85
		c0-1.02,0.83-1.85,1.85-1.85c1.02,0,1.85,0.83,1.85,1.85c0,0.39-0.12,0.75-0.33,1.05c0.22-0.09,0.45-0.16,0.7-0.21
		c0.1-0.26,0.16-0.54,0.16-0.84c0-1.31-1.06-2.37-2.37-2.37c-1.31,0-2.37,1.06-2.37,2.37C2.87,4.69,3.82,5.7,5.02,5.81z"/>
	<path class="st0" d="M11.56,5.82c0.07,0.01,0.14,0.02,0.21,0.02c1.31,0,2.37-1.06,2.37-2.37c0-1.31-1.06-2.37-2.37-2.37
		c-1.31,0-2.37,1.06-2.37,2.37c0,0.35,0.08,0.69,0.22,0.99C10.39,4.71,11.06,5.19,11.56,5.82z M11.76,1.61
		c1.02,0,1.85,0.83,1.85,1.85c0,1.02-0.83,1.85-1.85,1.85c-1.02,0-1.85-0.83-1.85-1.85C9.91,2.44,10.74,1.61,11.76,1.61z"/>
	<g>
		<path class="st0" d="M12.13,6.41h-0.18c0.09,0.17,0.18,0.35,0.25,0.53c2.05,0.04,3.7,1.71,3.7,3.77c0,0.14,0.12,0.26,0.26,0.26
			c0.15,0,0.26-0.12,0.26-0.26C16.43,8.34,14.5,6.41,12.13,6.41z"/>
		<path class="st0" d="M4.36,6.99C4.43,6.8,4.52,6.62,4.61,6.44c-2.24,0.14-4.03,1.99-4.03,4.27c0,0.14,0.12,0.26,0.26,0.26
			s0.26-0.12,0.26-0.26C1.1,8.81,2.53,7.24,4.36,6.99z"/>
	</g>
	<path class="st0" d="M8.66,11.36H7.92c-2.37,0-4.3,1.93-4.3,4.3c0,0.14,0.12,0.26,0.26,0.26c0.15,0,0.26-0.12,0.26-0.26
		c0-2.08,1.69-3.78,3.78-3.78h0.73c2.08,0,3.78,1.69,3.78,3.78c0,0.14,0.12,0.26,0.26,0.26s0.26-0.12,0.26-0.26
		C12.96,13.28,11.03,11.36,8.66,11.36z"/>
</g>
</svg>
