<?xml version="1.0" encoding="utf-8"?>
<!-- Generator: Adobe Illustrator 23.0.0, SVG Export Plug-In . SVG Version: 6.00 Build 0)  -->
<svg version="1.1" id="Layer_1" xmlns="http://www.w3.org/2000/svg" xmlns:xlink="http://www.w3.org/1999/xlink" x="0px" y="0px"
	 viewBox="0 0 124.92 27.79" style="enable-background:new 0 0 124.92 27.79;" xml:space="preserve">
<style type="text/css">
	.st0{opacity:0.39;enable-background:new    ;}
	.st1{fill:#0E4C5C;}
</style>
<g>
	<g class="st0">
		<path class="st1" d="M26.19,22.52l-6.15-9.31c-1.12-1.7-1.72-3.7-1.72-5.74l-0.02-4.2c0-0.78-0.63-1.41-1.41-1.41H13
			c-0.78,0-1.41,0.63-1.41,1.41l-0.02,4.2c0,2.04-0.6,4.03-1.72,5.74L3.7,22.52c-0.97,1.46,0.08,3.41,1.84,3.41h5.57h7.7h5.57
			C26.11,25.94,27.16,23.99,26.19,22.52z"/>
	</g>
	<g class="st0">
		<path class="st1" d="M43.49,15.09h1.82v4.12c-0.53,0.42-1.15,0.75-1.86,0.97c-0.71,0.23-1.44,0.34-2.18,0.34
			c-1.05,0-2-0.23-2.85-0.69c-0.85-0.46-1.51-1.09-1.99-1.9c-0.48-0.81-0.72-1.72-0.72-2.73c0-1.01,0.24-1.92,0.72-2.73
			c0.48-0.81,1.15-1.44,2-1.9c0.85-0.46,1.81-0.69,2.87-0.69c0.87,0,1.65,0.14,2.36,0.43s1.3,0.7,1.79,1.25l-1.21,1.18
			c-0.79-0.79-1.74-1.18-2.85-1.18c-0.73,0-1.38,0.15-1.94,0.46c-0.57,0.31-1.01,0.73-1.33,1.28s-0.48,1.18-0.48,1.89
			c0,0.69,0.16,1.31,0.48,1.86s0.76,0.98,1.33,1.3c0.57,0.31,1.21,0.47,1.93,0.47c0.81,0,1.52-0.18,2.13-0.53V15.09z"/>
		<path class="st1" d="M49.04,19.96c-0.64-0.34-1.14-0.82-1.5-1.44c-0.36-0.61-0.54-1.31-0.54-2.09c0-0.78,0.18-1.47,0.54-2.08
			c0.36-0.61,0.86-1.09,1.5-1.43c0.64-0.34,1.36-0.52,2.15-0.52c0.81,0,1.53,0.17,2.17,0.52s1.14,0.82,1.5,1.43
			c0.36,0.61,0.54,1.3,0.54,2.08c0,0.78-0.18,1.47-0.54,2.09c-0.36,0.62-0.86,1.09-1.5,1.44S52,20.48,51.2,20.48
			C50.4,20.48,49.68,20.3,49.04,19.96z M52.88,18.22c0.44-0.45,0.66-1.05,0.66-1.79c0-0.74-0.22-1.33-0.66-1.79
			c-0.44-0.45-1-0.68-1.68-0.68c-0.68,0-1.24,0.23-1.68,0.68c-0.44,0.45-0.66,1.05-0.66,1.79c0,0.74,0.22,1.33,0.66,1.79
			c0.44,0.45,1,0.68,1.68,0.68C51.88,18.9,52.44,18.67,52.88,18.22z"/>
		<path class="st1" d="M57.35,10.04h1.92v10.33h-1.92V10.04z"/>
		<path class="st1" d="M68.75,13.28c0.6,0.58,0.9,1.44,0.9,2.58v4.52H67.8v-4.28c0-0.69-0.16-1.21-0.49-1.56
			c-0.33-0.35-0.79-0.52-1.39-0.52c-0.68,0-1.21,0.2-1.61,0.61c-0.39,0.41-0.59,1-0.59,1.76v3.99h-1.84v-7.88h1.76v1.02
			c0.31-0.36,0.69-0.64,1.15-0.83c0.46-0.19,0.98-0.28,1.56-0.28C67.35,12.4,68.15,12.69,68.75,13.28z"/>
		<path class="st1" d="M72.55,20.23c-0.61-0.17-1.1-0.38-1.46-0.63l0.71-1.4c0.35,0.24,0.78,0.43,1.28,0.57
			c0.5,0.14,0.99,0.21,1.47,0.21c1.1,0,1.65-0.29,1.65-0.87c0-0.28-0.14-0.47-0.42-0.58c-0.28-0.11-0.73-0.21-1.35-0.31
			c-0.65-0.1-1.18-0.21-1.59-0.34s-0.76-0.35-1.06-0.67c-0.3-0.32-0.45-0.77-0.45-1.34c0-0.75,0.31-1.35,0.94-1.79
			c0.62-0.45,1.47-0.67,2.53-0.67c0.54,0,1.08,0.06,1.62,0.18s0.98,0.29,1.33,0.49l-0.71,1.4c-0.67-0.39-1.42-0.59-2.26-0.59
			c-0.54,0-0.95,0.08-1.23,0.24c-0.28,0.16-0.42,0.38-0.42,0.64c0,0.29,0.15,0.5,0.45,0.63c0.3,0.12,0.76,0.24,1.39,0.35
			c0.63,0.1,1.15,0.21,1.55,0.34c0.4,0.13,0.75,0.34,1.04,0.65c0.29,0.31,0.44,0.74,0.44,1.3c0,0.74-0.32,1.33-0.96,1.77
			c-0.64,0.44-1.51,0.66-2.61,0.66C73.79,20.48,73.16,20.39,72.55,20.23z"/>
		<path class="st1" d="M84.33,19.95c-0.22,0.18-0.48,0.31-0.79,0.4c-0.31,0.09-0.64,0.13-0.98,0.13c-0.87,0-1.54-0.23-2.01-0.68
			c-0.47-0.45-0.71-1.11-0.71-1.98v-3.79h-1.3v-1.48h1.3v-1.8h1.85v1.8h2.11v1.48h-2.11v3.75c0,0.38,0.09,0.68,0.28,0.88
			c0.19,0.2,0.46,0.3,0.81,0.3c0.41,0,0.76-0.11,1.03-0.32L84.33,19.95z"/>
		<path class="st1" d="M91.53,13.24c0.61,0.56,0.92,1.39,0.92,2.52v4.62h-1.74v-0.96c-0.23,0.34-0.55,0.61-0.97,0.79
			c-0.42,0.18-0.92,0.27-1.51,0.27c-0.59,0-1.11-0.1-1.55-0.3c-0.44-0.2-0.79-0.48-1.03-0.84c-0.24-0.36-0.36-0.77-0.36-1.22
			c0-0.71,0.26-1.28,0.79-1.71c0.53-0.43,1.36-0.64,2.49-0.64h2.04v-0.12c0-0.55-0.17-0.97-0.49-1.27
			c-0.33-0.29-0.82-0.44-1.47-0.44c-0.44,0-0.88,0.07-1.31,0.21c-0.43,0.14-0.79,0.33-1.08,0.58l-0.72-1.34
			c0.41-0.31,0.91-0.56,1.49-0.72c0.58-0.17,1.2-0.25,1.85-0.25C90.02,12.4,90.91,12.68,91.53,13.24z M89.84,18.82
			c0.36-0.21,0.61-0.51,0.76-0.91v-0.92h-1.9c-1.06,0-1.59,0.35-1.59,1.05c0,0.33,0.13,0.6,0.4,0.8c0.27,0.2,0.63,0.29,1.11,0.29
			C89.07,19.13,89.48,19.03,89.84,18.82z"/>
		<path class="st1" d="M94.99,10.04h1.92v8.71h5.4v1.62h-7.32V10.04z"/>
		<path class="st1" d="M109.4,13.24c0.62,0.56,0.92,1.39,0.92,2.52v4.62h-1.74v-0.96c-0.23,0.34-0.55,0.61-0.97,0.79
			c-0.42,0.18-0.92,0.27-1.51,0.27c-0.59,0-1.11-0.1-1.55-0.3c-0.44-0.2-0.78-0.48-1.03-0.84c-0.24-0.36-0.36-0.77-0.36-1.22
			c0-0.71,0.26-1.28,0.79-1.71c0.53-0.43,1.36-0.64,2.49-0.64h2.04v-0.12c0-0.55-0.16-0.97-0.49-1.27s-0.82-0.44-1.47-0.44
			c-0.44,0-0.88,0.07-1.31,0.21s-0.79,0.33-1.08,0.58l-0.72-1.34c0.41-0.31,0.91-0.56,1.49-0.72c0.58-0.17,1.2-0.25,1.84-0.25
			C107.9,12.4,108.78,12.68,109.4,13.24z M107.72,18.82c0.36-0.21,0.61-0.51,0.76-0.91v-0.92h-1.9c-1.06,0-1.59,0.35-1.59,1.05
			c0,0.33,0.13,0.6,0.4,0.8c0.27,0.2,0.63,0.29,1.11,0.29C106.95,19.13,107.36,19.03,107.72,18.82z"/>
		<path class="st1" d="M119.11,12.91c0.61,0.33,1.08,0.81,1.42,1.42c0.34,0.61,0.52,1.31,0.52,2.11c0,0.8-0.17,1.5-0.52,2.12
			c-0.34,0.61-0.82,1.09-1.42,1.42c-0.6,0.33-1.29,0.5-2.06,0.5c-0.54,0-1.04-0.09-1.48-0.28c-0.45-0.19-0.82-0.47-1.13-0.84v1.02
			h-1.76V9.42h1.84v4.03c0.31-0.34,0.69-0.61,1.11-0.78c0.43-0.18,0.9-0.27,1.41-0.27C117.82,12.4,118.5,12.57,119.11,12.91z
			 M118.52,18.22c0.44-0.45,0.66-1.05,0.66-1.79c0-0.74-0.22-1.33-0.66-1.79c-0.44-0.45-1-0.68-1.68-0.68c-0.44,0-0.84,0.1-1.2,0.3
			c-0.35,0.2-0.63,0.49-0.84,0.86c-0.21,0.37-0.31,0.81-0.31,1.3c0,0.49,0.1,0.92,0.31,1.3c0.21,0.37,0.49,0.66,0.84,0.86
			c0.35,0.2,0.75,0.3,1.2,0.3C117.52,18.9,118.08,18.67,118.52,18.22z"/>
	</g>
</g>
</svg>
