<?xml version="1.0" encoding="utf-8"?>
<!-- Generator: Adobe Illustrator 23.0.0, SVG Export Plug-In . SVG Version: 6.00 Build 0)  -->
<svg version="1.1" id="Layer_1" xmlns="http://www.w3.org/2000/svg" xmlns:xlink="http://www.w3.org/1999/xlink" x="0px" y="0px"
	 viewBox="0 0 25.8 26.4" style="enable-background:new 0 0 25.8 26.4;" xml:space="preserve">
<style type="text/css">
	.st0{fill:#154C5C;}
</style>
<g>
	<g>
		<path class="st0" d="M24.2,1.6c-0.2-0.2-0.5-0.2-0.7-0.1L1.8,11.8c-0.2,0.1-0.4,0.3-0.4,0.6c0,0.3,0.1,0.5,0.4,0.6l7.8,4.1
			l4.8,7.6c0.1,0.2,0.4,0.3,0.6,0.3l0,0c0.3,0,0.5-0.2,0.6-0.4l8.9-22.3C24.5,2.1,24.4,1.8,24.2,1.6L24.2,1.6z M21,4.1L9.8,15.9
			l-6.4-3.4L21,4.1z M14.7,23l-4-6.3L21.9,4.9L14.7,23z M14.8,22.9"/>
	</g>
</g>
</svg>
