<?xml version="1.0" encoding="utf-8"?>
<!-- Generator: Adobe Illustrator 23.0.0, SVG Export Plug-In . SVG Version: 6.00 Build 0)  -->
<svg version="1.1" id="Layer_1" xmlns="http://www.w3.org/2000/svg" xmlns:xlink="http://www.w3.org/1999/xlink" x="0px" y="0px"
	 viewBox="0 0 25.8 25.8" style="enable-background:new 0 0 25.8 25.8;" xml:space="preserve">
<style type="text/css">
	.st0{fill:#7F7F7F;}
</style>
<g>
	<g>
		<path class="st0" d="M8.8,24.8L8.8,24.8c-0.3,0-0.6-0.3-0.6-0.6V1.5C8.2,1.2,8.4,1,8.8,1h0c0.3,0,0.6,0.3,0.6,0.6v22.7
			C9.3,24.5,9.1,24.8,8.8,24.8z"/>
	</g>
	<g>
		<path class="st0" d="M17,24.8L17,24.8c-0.3,0-0.6-0.3-0.6-0.6V1.5C16.4,1.2,16.7,1,17,1h0c0.3,0,0.6,0.3,0.6,0.6v22.7
			C17.6,24.5,17.3,24.8,17,24.8z"/>
	</g>
</g>
</svg>
