<?xml version="1.0" encoding="utf-8"?>
<!-- Generator: Adobe Illustrator 23.0.0, SVG Export Plug-In . SVG Version: 6.00 Build 0)  -->
<svg version="1.1" id="Layer_1" xmlns="http://www.w3.org/2000/svg" xmlns:xlink="http://www.w3.org/1999/xlink" x="0px" y="0px"
	 viewBox="0 0 25.8 25.8" style="enable-background:new 0 0 25.8 25.8;" xml:space="preserve">
<style type="text/css">
	.st0{fill:#DB5856;}
</style>
<g>
	<path class="st0" d="M4.6,24.1c-0.3,0-0.6-0.1-0.8-0.2C3.3,23.5,3,23,3,22.4V3.3c0-0.6,0.3-1.1,0.8-1.4c0.5-0.3,1.1-0.3,1.7,0
		L22,11.4c0.5,0.3,0.8,0.8,0.8,1.4c0,0.6-0.3,1.1-0.8,1.4L5.5,23.8C5.2,24,4.9,24.1,4.6,24.1z M4.6,3c-0.1,0-0.1,0-0.2,0
		c-0.1,0-0.2,0.1-0.2,0.3v19.1c0,0.2,0.1,0.3,0.2,0.3c0,0,0.2,0.1,0.3,0l16.5-9.5c0.2-0.1,0.2-0.2,0.2-0.3c0-0.1,0-0.2-0.2-0.3
		L4.8,3.1C4.7,3,4.7,3,4.6,3z"/>
</g>
</svg>
