<?xml version="1.0" encoding="utf-8"?>
<!-- Generator: Adobe Illustrator 23.0.0, SVG Export Plug-In . SVG Version: 6.00 Build 0)  -->
<svg version="1.1" id="Layer_1" xmlns="http://www.w3.org/2000/svg" xmlns:xlink="http://www.w3.org/1999/xlink" x="0px" y="0px"
	 viewBox="0 0 1864.81 479.15" style="enable-background:new 0 0 1864.81 479.15;" xml:space="preserve">
<style type="text/css">
	.st0{fill:#FFFFFF;}
</style>
<g>
	<g>
		<path class="st0" d="M1163.74,211.61c-7.13,0.38-42.63,4.06-54.33,40.09c-2.18,6.72-3.14,13.77-3.14,20.84v41.88
			c0,7.87,6.38,14.26,14.26,14.26h0.39c7.87,0,14.26-6.38,14.26-14.26v-44.48c0-16.47,13.36-29.83,29.83-29.83h0v0h2.06
			c7.87,0,14.26-6.38,14.26-14.26v0c0-7.89-6.42-14.28-14.3-14.26C1165.16,211.6,1163.85,211.6,1163.74,211.61z"/>
		<path class="st0" d="M725.28,314.05c0-7.98-6.47-14.45-14.45-14.45l-30,0.18c-12.4,0-23.06-7.61-27.55-18.41l70.12,0
			c1.67,0,3.34-0.14,4.95-0.55c5.46-1.36,8.26-4.48,9.7-7.41c1.16-2.36,1.53-5.02,1.34-7.64c-2.16-30.7-27.91-54.89-59.24-54.54
			c-30.22,0.34-56.87,26.23-58.02,56.43c-1.28,33.48,25.49,61.03,58.69,61.03l30-0.18C718.81,328.5,725.28,322.03,725.28,314.05
			L725.28,314.05z M680.82,240.11c12.4,0,23.06,7.61,27.55,18.41h-55.11C657.76,247.72,668.42,240.11,680.82,240.11z"/>
		<path class="st0" d="M841.89,167.54v51.83c-9.85-5.7-21.5-8.63-33.9-7.68c-28.64,2.2-51.71,25.35-53.8,54
			c-2.51,34.34,24.61,62.98,58.42,62.98c32.35,0,58.58-26.23,58.58-58.58h0V167.54c0-8.09-6.56-14.64-14.64-14.64l0,0
			C848.45,152.9,841.89,159.46,841.89,167.54z M812.6,300.12c-16.56,0-30.03-13.47-30.03-30.03c0-16.56,13.47-30.03,30.03-30.03
			c16.56,0,30.03,13.47,30.03,30.03C842.63,286.65,829.16,300.12,812.6,300.12L812.6,300.12z"/>
		<path class="st0" d="M944.8,181.52h0.57c7.88,0,14.28-6.39,14.28-14.28v0c0-7.88-6.39-14.28-14.28-14.28h-0.57
			c-32.55,0-58.94,26.39-58.94,58.94V314.4c0,7.88,6.39,14.28,14.28,14.28h0c7.88,0,14.28-6.39,14.28-14.28v-65.33h30.96
			c7.88,0,14.28-6.39,14.28-14.28v-1.05c0-7.88-6.39-14.28-14.28-14.28h-30.96v-7.56C914.42,195.13,928.02,181.52,944.8,181.52z"/>
		<path class="st0" d="M1033.07,239.82c16.63,0,30.15,13.53,30.15,30.15s-13.53,30.15-30.15,30.15c-16.63,0-30.15-13.53-30.15-30.15
			S1016.45,239.82,1033.07,239.82 M1033.07,211.27c-32.42,0-58.7,26.28-58.7,58.7c0,32.42,26.28,58.7,58.7,58.7
			s58.7-26.28,58.7-58.7C1091.78,237.55,1065.49,211.27,1033.07,211.27L1033.07,211.27z"/>
		<path class="st0" d="M597.17,211.41c-7.13,0.38-42.63,4.06-54.33,40.09c-2.18,6.72-3.14,13.77-3.14,20.84v41.88
			c0,7.87,6.38,14.26,14.26,14.26h0.39c7.87,0,14.26-6.38,14.26-14.26v-44.48c0-16.47,13.36-29.83,29.83-29.83h0v0h2.06
			c7.87,0,14.26-6.38,14.26-14.26v0c0-7.89-6.42-14.28-14.3-14.26C598.59,211.41,597.28,211.41,597.17,211.41z"/>
		<path class="st0" d="M1289.39,314.22c0-7.98-6.47-14.45-14.45-14.45h-27.55c-12.4,0-23.06-7.61-27.55-18.41l70.12,0
			c1.67,0,3.33-0.14,4.95-0.55c5.46-1.36,8.26-4.48,9.7-7.41c1.16-2.36,1.53-5.02,1.34-7.64c-2.16-30.7-27.91-54.89-59.24-54.54
			c-30.22,0.34-56.87,26.23-58.02,56.43c-1.28,33.48,25.49,61.03,58.69,61.03h27.55C1282.92,328.67,1289.39,322.2,1289.39,314.22
			L1289.39,314.22z M1247.39,240.11c12.4,0,23.06,7.61,27.55,18.41h-55.11C1224.33,247.72,1234.98,240.11,1247.39,240.11z"/>
		<path class="st0" d="M1514.88,211.4v-0.82c0-7.88-6.39-14.28-14.28-14.28h-29.92v-29.83c0-7.88-6.39-14.28-14.28-14.28h-0.93
			c-7.88,0-14.28,6.39-14.28,14.28v103.46l0,0c0,32.44,26.3,58.73,58.73,58.73h0.41c7.88,0,14.28-6.39,14.28-14.28v0
			c0-7.88-6.39-14.28-14.28-14.28h-0.41c-14.12,0-25.97-9.76-29.25-22.88v-51.57h29.92C1508.48,225.67,1514.88,219.28,1514.88,211.4
			z"/>
		<path class="st0" d="M1548.08,328.67h-7.44c-6.12,0-11.08-4.96-11.08-11.08V163.55c0-6.12,4.96-11.08,11.08-11.08h7.44
			c6.12,0,11.08,4.96,11.08,11.08V317.6C1559.16,323.71,1554.2,328.67,1548.08,328.67z"/>
		<path class="st0" d="M1632.25,211.21c-33.13,0.18-59.77,27.78-58.36,61.27c1.27,30.19,25.77,54.76,55.95,56.13
			c11.63,0.53,22.54-2.34,31.86-7.68v0c0,4.28,3.47,7.74,7.74,7.74h14.11c4.28,0,7.74-3.47,7.74-7.74V270.9
			C1691.3,238.18,1664.97,211.03,1632.25,211.21z M1632.57,300.12c-16.64,0-30.18-13.54-30.18-30.18s13.54-30.18,30.18-30.18
			c16.64,0,30.18,13.54,30.18,30.18S1649.21,300.12,1632.57,300.12z"/>
		<path class="st0" d="M1720.63,152.9c-8.09,0-14.64,6.56-14.64,14.64V270.1h0c0,33.11,27.47,59.8,60.86,58.53
			c30.36-1.15,55.1-25.89,56.25-56.25c1.27-33.39-25.43-60.86-58.53-60.86c-10.67,0-20.67,2.87-29.29,7.86v-51.83
			C1735.28,159.46,1728.72,152.9,1720.63,152.9L1720.63,152.9z M1764.57,300.12c-16.56,0-30.03-13.47-30.03-30.03
			c0-16.56,13.47-30.03,30.03-30.03c16.56,0,30.03,13.47,30.03,30.03C1794.59,286.65,1781.12,300.12,1764.57,300.12L1764.57,300.12z
			"/>
		<path class="st0" d="M1425.94,225.9L1425.94,225.9c0-8.11-6.57-14.68-14.68-14.68h-54.31c-19.63,0-36.2,16.07-35.86,35.7
			c0.33,19.03,15.82,34.37,34.91,34.45h31.6c4.96,0,8.97,4.02,8.97,8.97v0c0,4.96-4.02,8.97-8.97,8.97h-51.84
			c-8.11,0-14.68,6.57-14.68,14.68v0c0,8.11,6.57,14.68,14.68,14.68h55.12c19.1,0,34.63-15.27,35.06-34.27v-1.61
			c-0.43-19-15.95-34.27-35.06-34.27h-31.47c-4.95,0-8.97-4.02-8.97-8.97v0c0-4.95,4.02-8.97,8.97-8.97h51.84
			C1419.36,240.58,1425.94,234,1425.94,225.9z"/>
	</g>
	<path class="st0" d="M435.42,388.1L329.52,227.77c-19.35-29.3-29.67-63.63-29.67-98.75l-0.26-72.39
		c0-13.45-10.91-24.36-24.36-24.36H208.2c-13.45,0-24.36,10.91-24.36,24.36l-0.26,72.39c0,35.11-10.32,69.45-29.67,98.75
		L48.01,388.1c-16.64,25.19,1.43,58.78,31.62,58.78h95.82c24.41,0,44.2-19.79,44.2-44.2l-73.98,0l48.72-68.98h-21.1l44.06-59.46
		h-21.26l45.64-74.05l45.64,74.05h-21.26l44.06,59.46h-21.11l48.72,68.98l-73.98,0c0,24.41,19.79,44.2,44.2,44.2h95.82
		C434,446.88,452.06,413.29,435.42,388.1z"/>
</g>
</svg>
