<?xml version="1.0" encoding="utf-8"?>
<!-- Generator: Adobe Illustrator 23.0.0, SVG Export Plug-In . SVG Version: 6.00 Build 0)  -->
<svg version="1.1" id="Layer_1" xmlns="http://www.w3.org/2000/svg" xmlns:xlink="http://www.w3.org/1999/xlink" x="0px" y="0px"
	 viewBox="0 0 17.01 17.01" style="enable-background:new 0 0 17.01 17.01;" xml:space="preserve">
<style type="text/css">
	.st0{fill:#7b838f;}
</style>
<path class="st0" d="M11.04,1.29c-2.56,0-4.64,2.08-4.64,4.64c0,1.17,0.44,2.24,1.16,3.06l-6.23,6.23l0.5,0.5l6.24-6.24
	c0.81,0.68,1.85,1.09,2.99,1.09c2.56,0,4.64-2.08,4.64-4.64S13.6,1.29,11.04,1.29z M11.04,9.9c-0.96,0-1.83-0.34-2.52-0.91
	L8.04,8.51l0,0c-0.6-0.69-0.96-1.59-0.96-2.58c0-2.19,1.78-3.97,3.97-3.97c2.19,0,3.97,1.78,3.97,3.97S13.23,9.9,11.04,9.9z"/>
</svg>
