<?xml version="1.0" encoding="utf-8"?>
<!-- Generator: Adobe Illustrator 23.0.0, SVG Export Plug-In . SVG Version: 6.00 Build 0)  -->
<svg version="1.1" id="Layer_1" xmlns="http://www.w3.org/2000/svg" xmlns:xlink="http://www.w3.org/1999/xlink" x="0px" y="0px"
	 viewBox="0 0 19.4 19.5" style="enable-background:new 0 0 19.4 19.5;" xml:space="preserve">
<style type="text/css">
	.st0{fill:#FCFDFD;}
</style>
<g>
	<path class="st0" d="M5.4,10.2h3.8V14c0,0.3,0.2,0.5,0.5,0.5c0.3,0,0.5-0.2,0.5-0.5v-3.8h3.8c0.3,0,0.5-0.2,0.5-0.5
		c0-0.3-0.2-0.5-0.5-0.5h-3.8V5.5C10.2,5.2,9.9,5,9.7,5C9.4,5,9.2,5.2,9.2,5.5v3.8H5.4c-0.3,0-0.5,0.2-0.5,0.5
		C4.9,10,5.2,10.2,5.4,10.2z"/>
	<path class="st0" d="M1.5,8.8C1.4,8.5,1.1,8.4,0.8,8.6C0.7,8.6,0.6,8.8,0.6,8.9l0,0c-0.1,0.9-0.1,1.7,0,2.6c0,0,0,0.1,0,0.1
		C0.7,11.9,1,12,1.3,11.9c0.2-0.1,0.3-0.3,0.3-0.5c-0.1-0.7-0.1-1.5,0-2.2l0,0C1.6,9,1.6,8.9,1.5,8.8z"/>
	<path class="st0" d="M2.2,4.7C2.2,5,2.5,5.2,2.8,5.1C2.9,5.1,3,5,3,4.9l0,0c0.3-0.4,0.7-0.8,1-1.1l0,0c0.2-0.1,0.3-0.3,0.2-0.6
		C4.2,3,3.9,2.8,3.6,2.9C3.5,2.9,3.5,3,3.4,3C3,3.4,2.6,3.8,2.2,4.3l0,0C2.2,4.4,2.1,4.6,2.2,4.7z"/>
	<path class="st0" d="M9.7,0.5C9,0.5,8.5,0.5,7.9,0.7C7.7,0.7,7.5,0.9,7.5,1.1c0,0.3,0.2,0.5,0.5,0.5c0,0,0,0,0.1,0l0,0
		c0.5-0.1,1-0.2,1.6-0.2c4.6,0,8.3,3.7,8.3,8.3S14.2,18,9.7,18c-2.7,0-5.1-1.3-6.6-3.4l0,0c-0.1-0.2-0.2-0.4-0.5-0.4
		c-0.3,0-0.5,0.2-0.5,0.5c0,0.1,0.1,0.3,0.2,0.4l0,0C3.8,17.5,6.6,19,9.7,19c5.1,0,9.3-4.2,9.3-9.3S14.8,0.5,9.7,0.5z"/>
</g>
</svg>
