<?xml version="1.0" encoding="utf-8"?>
<!-- Generator: Adobe Illustrator 23.0.0, SVG Export Plug-In . SVG Version: 6.00 Build 0)  -->
<svg version="1.1" id="Layer_1" xmlns="http://www.w3.org/2000/svg" xmlns:xlink="http://www.w3.org/1999/xlink" x="0px" y="0px"
	 viewBox="0 0 25.8 25.8" style="enable-background:new 0 0 25.8 25.8;" xml:space="preserve">
<style type="text/css">
	.st0{fill:#7F7F7F;}
</style>
<g>
	<g>
		<g>
			<path class="st0" d="M12.9,22.4c0.2,0,0.4-0.2,0.4-0.4V10c0-0.2-0.2-0.4-0.4-0.4c-0.2,0-0.4,0.2-0.4,0.4v12
				C12.5,22.2,12.7,22.4,12.9,22.4z"/>
		</g>
		<g>
			<path class="st0" d="M9.2,22.4c0.2,0,0.4-0.2,0.4-0.4V10c0-0.2-0.2-0.4-0.4-0.4C9,9.7,8.9,9.8,8.9,10v12
				C8.9,22.2,9,22.4,9.2,22.4z"/>
		</g>
		<g>
			<path class="st0" d="M16.5,22.4c0.2,0,0.4-0.2,0.4-0.4V10c0-0.2-0.2-0.4-0.4-0.4c-0.2,0-0.4,0.2-0.4,0.4v12
				C16.1,22.2,16.3,22.4,16.5,22.4z"/>
		</g>
	</g>
	<g>
		<path class="st0" d="M4.6,5.6l0.7-0.2L6,5.3l13.4-3.2l0.7-0.2l0.7-0.2c0.2,0,0.3-0.2,0.3-0.4c0-0.2-0.2-0.3-0.4-0.3l-5,1.2
			c-0.1-0.4-0.5-1.1-1-1.5c-0.4-0.2-0.8-0.3-1.2-0.2L9.9,1.4c-0.4,0.1-0.8,0.3-1,0.7C8.6,2.7,8.6,3.5,8.7,3.9l-4.3,1
			C4.3,5,4.1,5.2,4.2,5.4S4.4,5.7,4.6,5.6z M9.6,2.5c0.1-0.2,0.3-0.3,0.5-0.4l3.5-0.8c0.2-0.1,0.5,0,0.7,0.1C14.7,1.6,14.9,2,15,2.4
			L9.4,3.7C9.4,3.4,9.4,2.8,9.6,2.5z"/>
	</g>
	<g>
		<path class="st0" d="M21.2,6h-0.5h-4.6h-0.7H9.6H8.9H4.5C4.3,6,4.2,6.2,4.2,6.4s0.2,0.4,0.4,0.4h0.7L6,23.5c0,0.6,0.4,1.8,1.8,1.8
			H18c1.4,0,1.8-1.2,1.8-1.8l0.7-16.7h0.7c0.2,0,0.4-0.2,0.4-0.4S21.4,6,21.2,6z M19.1,23.5c0,0.1-0.1,1.1-1.1,1.1H7.7
			c-1,0-1.1-1-1.1-1.1L6,6.8h13.8L19.1,23.5z"/>
	</g>
</g>
</svg>
