<?xml version="1.0" encoding="utf-8"?>
<!-- Generator: Adobe Illustrator 23.0.0, SVG Export Plug-In . SVG Version: 6.00 Build 0)  -->
<svg version="1.1" id="Layer_1" xmlns="http://www.w3.org/2000/svg" xmlns:xlink="http://www.w3.org/1999/xlink" x="0px" y="0px"
	 viewBox="0 0 17 17" style="enable-background:new 0 0 17 17;" xml:space="preserve">
<style type="text/css">
	.st0{fill:#7b838f;}
</style>
<g>
	<g>
		<g>
			<g>
				<path class="st0" d="M14.9,10.9c-0.2,0-0.3,0.2-0.3,0.3v1.3c0,0.8-0.6,1.4-1.4,1.4H3.8c-0.8,0-1.4-0.6-1.4-1.4v-1.3
					c0-0.2-0.2-0.3-0.3-0.3S1.8,11,1.8,11.2v1.3c0,1.1,0.9,2.1,2.1,2.1h9.3c1.1,0,2.1-0.9,2.1-2.1v-1.3C15.2,11,15.1,10.9,14.9,10.9
					z"/>
			</g>
		</g>
		<g>
			<g>
				<path class="st0" d="M12.8,12.9c0.2,0,0.3-0.2,0.3-0.3c0-0.2-0.2-0.3-0.3-0.3H4.2c-0.2,0-0.3,0.2-0.3,0.3c0,0.2,0.2,0.3,0.3,0.3
					"/>
			</g>
		</g>
		<g>
			<g>
				<path class="st0" d="M11.9,5.2L9.1,2.6c-0.3-0.3-0.8-0.3-1.1,0L5.1,5.2C4.9,5.3,4.9,5.5,5,5.7c0.1,0.1,0.3,0.2,0.5,0l2.6-2.4V10
					c0,0.2,0.2,0.3,0.3,0.3c0.2,0,0.3-0.2,0.3-0.3V3.4l2.6,2.4c0.1,0.1,0.1,0.1,0.2,0.1c0.1,0,0.2,0,0.3-0.1
					C12.1,5.5,12.1,5.3,11.9,5.2z"/>
			</g>
		</g>
	</g>
</g>
</svg>
