<?xml version="1.0" encoding="utf-8"?>
<!-- Generator: Adobe Illustrator 23.0.0, SVG Export Plug-In . SVG Version: 6.00 Build 0)  -->
<svg version="1.1" id="Layer_1" xmlns="http://www.w3.org/2000/svg" xmlns:xlink="http://www.w3.org/1999/xlink" x="0px" y="0px"
	 viewBox="0 0 25.8 25.8" style="enable-background:new 0 0 25.8 25.8;" xml:space="preserve">
<style type="text/css">
	.st0{fill:#7F7F7F;}
</style>
<g>
	<path class="st0" d="M12.9,19.6c-5.3,0-10-2.6-12-6.5l-0.1-0.2l0.1-0.2c2-4,6.7-6.5,12-6.5c5.3,0,10,2.6,12,6.5l0.1,0.2L24.8,13
		C22.9,17,18.2,19.6,12.9,19.6z M1.6,12.9c1.9,3.6,6.3,6,11.3,6c5,0,9.4-2.3,11.3-6c-1.4-2.7-4.2-4.7-7.5-5.5
		c1.2,0.8,1.9,2.1,1.9,3.4c0,2.5-2.5,4.6-5.7,4.6s-5.7-2.1-5.7-4.6c0-1.4,0.7-2.6,1.9-3.4C5.8,8.2,3,10.2,1.6,12.9z M12.9,6.9
		c-2.7,0-5,1.7-5,3.9c0,2.1,2.2,3.9,5,3.9c2.7,0,5-1.7,5-3.9C17.8,8.6,15.6,6.9,12.9,6.9z M12.5,13.6c-1.8,0-3.3-1.2-3.3-2.7
		c0-0.2,0.2-0.3,0.3-0.3s0.3,0.2,0.3,0.3c0,1.1,1.2,2,2.6,2c0.2,0,0.3,0.2,0.3,0.3S12.7,13.6,12.5,13.6z"/>
</g>
</svg>
