<?xml version="1.0" encoding="utf-8"?>
<!-- Generator: Adobe Illustrator 23.0.0, SVG Export Plug-In . SVG Version: 6.00 Build 0)  -->
<svg version="1.1" id="Layer_1" xmlns="http://www.w3.org/2000/svg" xmlns:xlink="http://www.w3.org/1999/xlink" x="0px" y="0px"
	 viewBox="0 0 17.01 17.01" style="enable-background:new 0 0 17.01 17.01;" xml:space="preserve">
<style type="text/css">
	.st0{fill:#EBEBEC;}
</style>
<g>
	<g>
		<path class="st0" d="M12.45,10.72c0.95,0,1.72-0.77,1.72-1.72s-0.77-1.72-1.72-1.72c-0.95,0-1.72,0.77-1.72,1.72
			S11.5,10.72,12.45,10.72z M12.45,7.66c0.74,0,1.34,0.6,1.34,1.34s-0.6,1.34-1.34,1.34c-0.74,0-1.34-0.6-1.34-1.34
			S11.71,7.66,12.45,7.66z"/>
		<path class="st0" d="M12.71,11.14h-0.53c-1.72,0-3.12,1.4-3.12,3.12c0,0.11,0.09,0.19,0.19,0.19s0.19-0.09,0.19-0.19
			c0-1.51,1.23-2.74,2.74-2.74h0.53c1.51,0,2.74,1.23,2.74,2.74c0,0.11,0.09,0.19,0.19,0.19c0.11,0,0.19-0.09,0.19-0.19
			C15.84,12.54,14.44,11.14,12.71,11.14z"/>
		<path class="st0" d="M10.05,11.06c0.11,0,0.19-0.09,0.19-0.19s-0.09-0.19-0.19-0.19H8.6V9.22c0-0.11-0.09-0.19-0.19-0.19
			S8.22,9.12,8.22,9.22v1.45H6.76c-0.11,0-0.19,0.09-0.19,0.19s0.09,0.19,0.19,0.19h1.45v1.45c0,0.11,0.09,0.19,0.19,0.19
			s0.19-0.09,0.19-0.19v-1.45H10.05z"/>
	</g>
	<path class="st0" d="M16.03,2.65c-0.08-0.05-0.17-0.07-0.26-0.08V2.55h-0.12c0,0,0,0-0.01,0H1.55c0,0-0.01,0-0.01,0H1.48v0.01
		C1.37,2.57,1.26,2.59,1.16,2.65C0.92,2.78,0.77,3.03,0.77,3.31v7.93c0,0.42,0.34,0.76,0.76,0.76H4.4v-0.36H1.53
		c-0.02,0-0.04-0.01-0.06-0.01l5.24-5.56L8.2,7C8.44,7.16,8.75,7.16,9,7l2.71-1.69c0.63-0.38,2.92-1.74,3.94-2.27
		c0.05-0.03,0.11-0.05,0.16-0.07v3.18l0.42,0.91V2.87C16.25,2.87,16.13,2.7,16.03,2.65z M1.16,11.39c-0.02-0.05-0.03-0.1-0.03-0.15
		V3.31c0-0.15,0.08-0.28,0.21-0.35C1.4,2.93,1.46,2.91,1.53,2.91c0.07,0,0.15,0.02,0.21,0.06l4.63,2.89L1.16,11.39z M11.13,5.25
		L8.81,6.7c-0.13,0.08-0.3,0.08-0.42,0L2.32,2.91h12.56L11.13,5.25z"/>
</g>
</svg>
