<?xml version="1.0" encoding="utf-8"?>
<!-- Generator: Adobe Illustrator 23.0.0, SVG Export Plug-In . SVG Version: 6.00 Build 0)  -->
<svg version="1.1" xmlns="http://www.w3.org/2000/svg" xmlns:xlink="http://www.w3.org/1999/xlink" x="0px" y="0px"
	 viewBox="0 0 159.6 165" style="enable-background:new 0 0 159.6 165;" xml:space="preserve">
<style type="text/css">
	.st0{display:none;}
	.st1{display:inline;}
	.st2{fill:#FFFFFF;}
	.st3{fill:url(#SVGID_1_);}
	.st4{fill:url(#SVGID_2_);}
	.st5{fill:url(#SVGID_3_);}
	.st6{fill:url(#SVGID_4_);}
	.st7{fill:url(#SVGID_5_);}
	.st8{fill:url(#SVGID_6_);}
	.st9{fill:url(#SVGID_7_);}
	.st10{fill:url(#SVGID_8_);}
	.st11{fill:url(#SVGID_9_);}
	.st12{fill:url(#SVGID_10_);}
	.st13{fill:url(#SVGID_11_);}
	.st14{fill:url(#SVGID_12_);}
	.st15{fill:url(#SVGID_13_);}
	.st16{fill:url(#SVGID_14_);}
	.st17{fill:url(#SVGID_15_);}
	.st18{fill:url(#SVGID_16_);}
	.st19{fill:url(#SVGID_17_);}
	.st20{fill:url(#SVGID_18_);}
	.st21{fill:url(#SVGID_19_);}
	.st22{fill:url(#SVGID_20_);}
	.st23{fill:url(#SVGID_21_);}
	.st24{fill:url(#SVGID_22_);}
	.st25{fill:url(#SVGID_23_);}
	.st26{fill:url(#SVGID_24_);}
	.st27{fill:url(#SVGID_25_);}
	.st28{fill:url(#SVGID_26_);}
	.st29{fill:url(#SVGID_27_);}
	.st30{fill:url(#SVGID_28_);}
	.st31{fill:url(#SVGID_29_);}
	.st32{fill:url(#SVGID_30_);}
	.st33{fill:url(#SVGID_31_);}
</style>
<g id="Layer_1" class="st0">
</g>
<g id="Layer_2">
	<g>
		<g>
			<linearGradient id="SVGID_1_" gradientUnits="userSpaceOnUse" x1="167.7866" y1="-67.4963" x2="25.2266" y2="174.4238">
				<stop  offset="0" style="stop-color:#4F61AB"/>
				<stop  offset="0.2207" style="stop-color:#BA4397"/>
				<stop  offset="0.3935" style="stop-color:#D74D76"/>
				<stop  offset="0.5378" style="stop-color:#E95461"/>
				<stop  offset="0.6341" style="stop-color:#EF565A"/>
				<stop  offset="0.7268" style="stop-color:#EF5959"/>
				<stop  offset="0.7974" style="stop-color:#F16357"/>
				<stop  offset="0.8608" style="stop-color:#F37353"/>
				<stop  offset="0.9199" style="stop-color:#F68A4E"/>
				<stop  offset="0.9756" style="stop-color:#FAA748"/>
				<stop  offset="1" style="stop-color:#FCB744"/>
			</linearGradient>
			<path class="st3" d="M159.6,50.1l-21.2-8.6V24.4L79.8,0L21.2,24.7v16.8L0,50.1v63.4c0,0,0,0,0,0l21.2,9v17.9L79.8,165l58.6-26
				v-16.5l21.2-9V50.1z M133.8,44.6v74.8l-54,22.9l-54-22.9V44.6l54-21.9c0,0,0,0,0,0L133.8,44.6z"/>
		</g>
		<linearGradient id="SVGID_2_" gradientUnits="userSpaceOnUse" x1="168.23" y1="-67.235" x2="25.67" y2="174.685">
			<stop  offset="0" style="stop-color:#4F61AB"/>
			<stop  offset="0.2207" style="stop-color:#BA4397"/>
			<stop  offset="0.3935" style="stop-color:#D74D76"/>
			<stop  offset="0.5378" style="stop-color:#E95461"/>
			<stop  offset="0.6341" style="stop-color:#EF565A"/>
			<stop  offset="0.7268" style="stop-color:#EF5959"/>
			<stop  offset="0.7974" style="stop-color:#F16357"/>
			<stop  offset="0.8608" style="stop-color:#F37353"/>
			<stop  offset="0.9199" style="stop-color:#F68A4E"/>
			<stop  offset="0.9756" style="stop-color:#FAA748"/>
			<stop  offset="1" style="stop-color:#FCB744"/>
		</linearGradient>
		<path class="st4" d="M79.8,37.2L38.8,54.5v56.7l40.9,16.6l0,0l40.9-16.6V54.5L79.8,37.2z M60.5,86.3c-5.4,0-9.8-4.4-9.8-9.8
			c0-5.4,4.4-9.8,9.8-9.8s9.8,4.4,9.8,9.8C70.3,81.9,65.9,86.3,60.5,86.3z M99.1,86.3c-5.4,0-9.8-4.4-9.8-9.8c0-5.4,4.4-9.8,9.8-9.8
			s9.8,4.4,9.8,9.8C108.9,81.9,104.5,86.3,99.1,86.3z"/>
	</g>
</g>
</svg>
