<?xml version="1.0" encoding="utf-8"?>
<!-- Generator: Adobe Illustrator 23.0.0, SVG Export Plug-In . SVG Version: 6.00 Build 0)  -->
<svg version="1.1" xmlns="http://www.w3.org/2000/svg" xmlns:xlink="http://www.w3.org/1999/xlink" x="0px" y="0px"
	 viewBox="0 0 610.1 165" style="enable-background:new 0 0 610.1 165;" xml:space="preserve">
<style type="text/css">
	.st0{display:none;}
	.st1{display:inline;}
	.st2{fill:#FFFFFF;}
	.st3{fill:url(#SVGID_1_);}
	.st4{fill:url(#SVGID_2_);}
	.st5{fill:url(#SVGID_3_);}
	.st6{fill:url(#SVGID_4_);}
	.st7{fill:url(#SVGID_5_);}
	.st8{fill:url(#SVGID_6_);}
	.st9{fill:url(#SVGID_7_);}
	.st10{fill:url(#SVGID_8_);}
	.st11{fill:url(#SVGID_9_);}
	.st12{fill:url(#SVGID_10_);}
	.st13{fill:url(#SVGID_11_);}
	.st14{fill:url(#SVGID_12_);}
	.st15{fill:url(#SVGID_13_);}
	.st16{fill:url(#SVGID_14_);}
	.st17{fill:url(#SVGID_15_);}
	.st18{fill:url(#SVGID_16_);}
	.st19{fill:url(#SVGID_17_);}
	.st20{fill:url(#SVGID_18_);}
	.st21{fill:url(#SVGID_19_);}
	.st22{fill:url(#SVGID_20_);}
	.st23{fill:url(#SVGID_21_);}
	.st24{fill:url(#SVGID_22_);}
	.st25{fill:url(#SVGID_23_);}
	.st26{fill:url(#SVGID_24_);}
	.st27{fill:url(#SVGID_25_);}
	.st28{fill:url(#SVGID_26_);}
	.st29{fill:url(#SVGID_27_);}
	.st30{fill:url(#SVGID_28_);}
	.st31{fill:url(#SVGID_29_);}
	.st32{fill:url(#SVGID_30_);}
	.st33{fill:url(#SVGID_31_);}
</style>
<g id="Layer_1" class="st0">
	<g class="st1">
		<path class="st2" d="M241.5,223.8c-104.1,0-208.2,0-312.2,0c0-104.1,0-208.2,0-312.2c104.1,0,208.2,0,312.2,0
			C241.5,15.7,241.5,119.8,241.5,223.8z M173.4,102.8c0-0.2,0-0.7,0-1.1c0-22,0-43.9,0-65.9c0-0.5-0.4-1.1-0.7-1.4
			c-0.5-0.4-1.3-0.6-1.9-0.8c-1.2-0.4-2.4-0.8-3.5-1.3c-1.1-0.5-2.2-1.2-3.3-1.8c-0.7-0.3-1.4-0.4-2.1-0.7c-1.4-0.6-2.7-1.3-4.1-1.9
			c-1.3-0.6-2.6-1-4-1.5c-1-0.4-2-1-3-1.3c-1.1-0.3-1.5-0.8-1.5-1.9c0-5.9,0-11.8,0-17.6c0-1-0.3-1.6-1.4-1.7
			c-0.3,0-0.5-0.2-0.8-0.3c-1.4-0.7-2.8-1.4-4.2-2c-1.3-0.5-2.6-0.9-3.9-1.4c-1.5-0.6-3-1.4-4.6-2c-2.6-1.1-5.2-2.1-7.8-3.2
			c-0.9-0.4-1.7-1.3-2.5-1.3c-1.7,0-2.7-1.2-4.2-1.7c-1.5-0.5-3-1.2-4.5-1.8c-1.3-0.5-2.6-0.9-3.9-1.4c-1.3-0.6-2.5-1.4-3.8-1.9
			c-1.6-0.7-3.3-1.2-4.9-1.8c-1.6-0.6-3.2-1.1-4.8-1.8c-1.7-0.7-3.3-1.5-4.9-2.2c-2-0.8-4-1.4-5.9-2.4c-1.4-0.7-2.7-0.6-4.1-0.1
			c-2.1,0.8-4.3,1.5-6.2,2.6c-2.2,1.3-4.9,1.5-6.9,3.2c-0.1,0-0.2,0-0.2,0.1c-1.8,0.7-3.6,1.4-5.4,2.1c-1.1,0.4-2.1,0.9-3.2,1.3
			c-1.3,0.5-2.6,0.8-3.8,1.3c-2.6,1.1-5.2,2.2-7.8,3.3c-2.4,1-4.7,2.1-7.1,3.1c-0.6,0.3-1.2,0.5-1.8,0.8c-1.7,0.7-3.5,1.3-5.2,2
			c-1.5,0.6-3,1.3-4.5,2c-1.5,0.6-3,1.3-4.5,1.9c-1.2,0.5-2.4,1.2-3.7,1.5c-1.2,0.3-1.6,0.8-1.6,1.9c0,5.4,0,10.9,0,16.3
			c0,0.4,0,1-0.2,1.1c-1.8,0.9-3.6,1.7-5.4,2.4c-1.4,0.6-2.8,1-4.2,1.6c-1,0.4-2,0.9-3,1.3c-1.8,0.7-3.7,1.4-5.5,2.2
			c-1.3,0.5-2.5,1.5-3.8,1.7c-1.6,0.2-1.7,1-1.7,2.3c0,22.2,0,44.4,0,66.6c0,0.4-0.1,0.8,0,1.1c0.2,0.4,0.6,0.9,1,1
			c1.4,0.5,2.8,0.8,4.2,1.4c2.1,0.8,4.1,1.8,6.1,2.7c1.9,0.8,3.8,1.5,5.7,2.4c2,0.8,3.9,1.8,5.9,2.6c0.9,0.3,0.9,0.9,0.9,1.6
			c0,5.4,0,10.8,0,16.2c0,0.5,0.2,1.3,0.6,1.5c1.3,0.8,2.6,1.4,4,2c1.7,0.7,3.4,1.4,5.1,2.1c1.5,0.6,3,1.3,4.5,1.9
			c1.5,0.6,3,1.1,4.4,1.7c1.2,0.5,2.3,1.2,3.5,1.7c2.2,0.9,4.5,1.6,6.7,2.5c2.1,0.8,4.2,1.8,6.3,2.7c1.5,0.6,3.1,1.2,4.7,1.8
			c1.5,0.6,2.9,1.4,4.4,2.1c0.6,0.3,1.1,0.6,1.7,0.9c0.2,0.1,0.5,0.2,0.8,0.3c0.5,0.2,1.1,0.3,1.6,0.5c0.5,0.2,0.9,0.4,1.4,0.6
			c1.3,0.5,2.6,0.9,3.8,1.3c1.7,0.6,2.9,2.4,4.9,2.2c0.1,0,0.3,0.1,0.3,0.2c0.3,1,1.2,0.8,2,0.9c0.3,0.1,0.7,0.4,1,0.6
			c0.1,0.1,0.3,0.4,0.4,0.4c1.2-0.1,2.5,0,3.6-0.4c1.7-0.5,3-2.2,5.1-1.9c0.2,0,0.6-0.2,0.8-0.4c1.3-0.9,2.5-1.8,4.2-1.9
			c0.3,0,0.5-0.3,0.8-0.4c0.5-0.2,1-0.8,1.4-0.7c1.7,0.3,2.7-0.9,3.9-1.6c0.7-0.4,1.3-0.6,2.1-0.7c0.7-0.1,1.7,0.4,1.8-0.9
			c0-0.1,0.4-0.2,0.6-0.2c0.9,0,1.8,0.1,2.3-1c0.1-0.1,0.4-0.2,0.7-0.2c1.3-0.2,2.3-1.5,3.7-1.4c0.1,0,0.1-0.2,0.2-0.2
			c1.5-0.8,2.9-2.1,4.9-1.8c0.3,0,0.7-0.3,1.1-0.5c0.4-0.2,0.8-0.5,1.2-0.6c1.2-0.3,2-1.6,3.4-1.3c0,0,0.1-0.1,0.1-0.2
			c0.1-0.9,0.7-0.7,1.3-0.8c1-0.1,2.4,0.6,2.9-1c0-0.1,0.4,0,0.6-0.1c0.4-0.2,0.7-0.4,1.1-0.6c0.4-0.2,0.7-0.4,1.1-0.5
			c0.9-0.2,2.1,0.5,2.4-1c0,0,0.1-0.1,0.2-0.1c1.1-0.2,2.1,0.1,3.1-1.1c0.6-0.7,2-1.6,3.4-1.3c0.1,0,0.3-0.1,0.3-0.2
			c0.6-1.2,2-0.9,2.9-1.5c1.2-0.8,3,0,4.1-1.6c0.8-1.2,1.6-3.1,1-4.5c-0.1-0.3-0.3-0.6-0.3-0.9c0.2-3.3-0.5-6.7,0.4-10
			c0.1-0.2-0.1-0.4-0.2-0.7c-0.4-1.1-0.1-3,0.6-3.3c1-0.5,2.1-0.9,3.2-1.2c1.4-0.5,2.8-0.9,4.2-1.3c0.1,0,0.3-0.2,0.4-0.3
			c1.6-0.8,3.1-1.7,4.7-2.4c0.5-0.3,1.1-0.5,1.7-0.5c0.9,0,1.7-0.1,2.2-0.9c0.1-0.2,0.4-0.3,0.6-0.3c1.4-0.4,2.6-1.6,4.2-1.2
			c0.1,0,0.2-0.2,0.4-0.3C172.1,103.7,172.6,103.3,173.4,102.8z"/>
		<path d="M173.4,102.8c-0.7,0.5-1.3,0.9-1.8,1.3c-0.1,0.1-0.3,0.3-0.4,0.3c-1.6-0.4-2.8,0.8-4.2,1.2c-0.2,0.1-0.5,0.1-0.6,0.3
			c-0.6,0.8-1.3,0.8-2.2,0.9c-0.6,0-1.1,0.3-1.7,0.5c-1.6,0.8-3.1,1.6-4.7,2.4c-0.1,0.1-0.2,0.2-0.4,0.3c-1.4,0.4-2.8,0.8-4.2,1.3
			c-1.1,0.4-2.1,0.8-3.2,1.2c-0.7,0.3-1,2.3-0.6,3.3c0.1,0.2,0.3,0.5,0.2,0.7c-0.9,3.3-0.2,6.7-0.4,10c0,0.3,0.1,0.6,0.3,0.9
			c0.6,1.4-0.3,3.4-1,4.5c-1.1,1.6-2.9,0.8-4.1,1.6c-0.9,0.6-2.3,0.2-2.9,1.5c0,0.1-0.2,0.2-0.3,0.2c-1.4-0.3-2.8,0.6-3.4,1.3
			c-1,1.2-2,0.9-3.1,1.1c-0.1,0-0.2,0.1-0.2,0.1c-0.3,1.5-1.5,0.8-2.4,1c-0.4,0.1-0.8,0.3-1.1,0.5c-0.4,0.2-0.7,0.4-1.1,0.6
			c-0.2,0.1-0.5,0-0.6,0.1c-0.5,1.6-1.9,0.9-2.9,1c-0.6,0.1-1.2-0.1-1.3,0.8c0,0.1-0.1,0.2-0.1,0.2c-1.4-0.3-2.2,1.1-3.4,1.3
			c-0.4,0.1-0.8,0.4-1.2,0.6c-0.4,0.2-0.8,0.6-1.1,0.5c-2-0.3-3.3,1-4.9,1.8c-0.1,0.1-0.2,0.3-0.2,0.2c-1.5-0.1-2.4,1.2-3.7,1.4
			c-0.2,0-0.6,0.1-0.7,0.2c-0.5,1-1.4,1-2.3,1c-0.2,0-0.6,0.1-0.6,0.2c-0.1,1.3-1.1,0.8-1.8,0.9c-0.8,0.1-1.4,0.3-2.1,0.7
			c-1.2,0.7-2.2,1.9-3.9,1.6c-0.4-0.1-0.9,0.4-1.4,0.7c-0.3,0.1-0.5,0.4-0.8,0.4c-1.7,0-2.9,1-4.2,1.9c-0.3,0.2-0.6,0.5-0.8,0.4
			c-2.1-0.3-3.4,1.3-5.1,1.9c-1.1,0.3-2.4,0.3-3.6,0.4c-0.1,0-0.2-0.3-0.4-0.4c-0.3-0.2-0.6-0.6-1-0.6c-0.8-0.1-1.6,0.1-2-0.9
			c0-0.1-0.2-0.2-0.3-0.2c-2,0.2-3.2-1.6-4.9-2.2c-1.3-0.4-2.6-0.9-3.8-1.3c-0.5-0.2-0.9-0.4-1.4-0.6c-0.5-0.2-1.1-0.3-1.6-0.5
			c-0.3-0.1-0.5-0.2-0.8-0.3c-0.6-0.3-1.1-0.6-1.7-0.9c-1.5-0.7-2.9-1.4-4.4-2.1c-1.5-0.7-3.1-1.2-4.7-1.8c-2.1-0.9-4.2-1.9-6.3-2.7
			c-2.2-0.9-4.5-1.6-6.7-2.5c-1.2-0.5-2.3-1.1-3.5-1.7c-1.5-0.6-3-1.1-4.4-1.7c-1.5-0.6-3-1.3-4.5-1.9c-1.7-0.7-3.4-1.3-5.1-2.1
			c-1.4-0.6-2.7-1.2-4-2c-0.4-0.2-0.6-1-0.6-1.5c0-5.4,0-10.8,0-16.2c0-0.8,0-1.3-0.9-1.6c-2-0.8-3.9-1.7-5.9-2.6
			c-1.9-0.8-3.8-1.6-5.7-2.4c-2.1-0.9-4.1-1.8-6.1-2.7c-1.4-0.5-2.8-0.9-4.2-1.4c-0.4-0.2-0.8-0.6-1-1c-0.2-0.3,0-0.7,0-1.1
			c0-22.2,0-44.4,0-66.6c0-1.2,0.1-2,1.7-2.3c1.3-0.2,2.5-1.2,3.8-1.7c1.8-0.8,3.7-1.4,5.5-2.2c1-0.4,2-0.9,3-1.3
			c1.4-0.6,2.8-1,4.2-1.6c1.8-0.8,3.6-1.6,5.4-2.4c0.2-0.1,0.2-0.7,0.2-1.1c0-5.4,0-10.9,0-16.3c0-1.1,0.4-1.7,1.6-1.9
			c1.3-0.3,2.5-1,3.7-1.5c1.5-0.6,3-1.2,4.5-1.9c1.5-0.6,3-1.3,4.5-2c1.7-0.7,3.5-1.3,5.2-2c0.6-0.2,1.2-0.5,1.8-0.8
			c2.4-1,4.7-2.1,7.1-3.1c2.6-1.1,5.2-2.3,7.8-3.3c1.2-0.5,2.6-0.8,3.8-1.3c1.1-0.4,2.1-0.9,3.2-1.3c1.8-0.7,3.6-1.4,5.4-2.1
			c0.1,0,0.2,0,0.2-0.1c2-1.8,4.6-2,6.9-3.2c1.9-1.1,4.1-1.8,6.2-2.6c1.4-0.5,2.7-0.7,4.1,0.1c1.9,0.9,3.9,1.6,5.9,2.4
			c1.7,0.7,3.3,1.5,4.9,2.2c1.6,0.6,3.2,1.2,4.8,1.8c1.6,0.6,3.3,1.1,4.9,1.8c1.3,0.6,2.5,1.4,3.8,1.9c1.3,0.6,2.6,0.9,3.9,1.4
			c1.5,0.6,3,1.4,4.5,1.8c1.4,0.4,2.5,1.6,4.2,1.7c0.9,0,1.7,1,2.5,1.3c2.6,1.1,5.2,2.1,7.8,3.2c1.5,0.6,3,1.4,4.6,2
			c1.3,0.5,2.6,0.9,3.9,1.4c1.4,0.6,2.8,1.3,4.2,2c0.2,0.1,0.5,0.3,0.8,0.3c1,0.1,1.4,0.7,1.4,1.7c0,5.9,0,11.8,0,17.6
			c0,1.1,0.4,1.6,1.5,1.9c1,0.2,2,0.9,3,1.3c1.3,0.5,2.7,1,4,1.5c1.4,0.6,2.7,1.3,4.1,1.9c0.7,0.3,1.4,0.4,2.1,0.7
			c1.1,0.5,2.1,1.3,3.3,1.8c1.1,0.5,2.3,0.8,3.5,1.3c0.7,0.2,1.4,0.4,1.9,0.8c0.4,0.3,0.7,0.9,0.7,1.4c0,22,0,43.9,0,65.9
			C173.4,102.1,173.4,102.6,173.4,102.8z M28.1,86C28.1,86,28.1,86,28.1,86c-0.1,6.7-0.1,13.4-0.1,20c0,1.8,0.3,2.3,2,3
			c1.1,0.5,2.2,1,3.3,1.5c1.4,0.6,2.9,1.3,4.4,1.8c1.3,0.5,2.7,0.8,3.9,1.4c1.7,0.7,3.3,1.4,5,2.1c2.3,1,4.6,1.9,7,2.9
			c0.6,0.3,1.3,0.5,1.9,0.8c2,0.9,4,1.7,6.1,2.6c1.8,0.8,3.6,1.5,5.4,2.2c1.4,0.6,2.8,1.2,4.2,1.8c2.1,0.9,4.1,1.8,6.2,2.7
			c1.1,0.5,2.2,0.9,3.2,1.3c1.2,0.5,2.5,1.1,3.7,1.5c0.5,0.2,1.2,0.2,1.7,0.1c0.7-0.2,1.3-0.6,1.9-0.8c1.5-0.4,2.8-1.7,4.5-1.4
			c0.2,0,0.4-0.1,0.6-0.2c1.4-0.7,2.7-1.4,4.1-2c0.1-0.1,0.4-0.1,0.4-0.2c0.2-1.3,1.2-0.8,1.9-0.9c0.4-0.1,0.8-0.2,1.2-0.4
			c1.3-0.6,2.5-1.3,3.8-1.8c1.5-0.6,3.1-1,4.6-1.6c1.4-0.5,2.7-1.2,4.1-1.8c1.4-0.6,2.7-1.1,4.1-1.6c1.7-0.5,3-2.3,5.1-1.9
			c0.1,0,0.2-0.1,0.3-0.1c1-0.5,2-1.1,3.1-1.6c0.9-0.4,2-0.5,2.8-1c1.9-1.2,4.3-1.5,6.1-3c0.2-0.1,0.5,0,0.8-0.1
			c0.3,0,0.7,0,0.9-0.1c1.3-0.6,2.5-1.4,3.8-2c0.2-0.1,0.5-0.1,0.7-0.1c1.1,0,1.5-0.6,1.5-1.6c0.1-3.3,0.2-6.7,0.2-10
			c0-9.1-0.2-18.1-0.2-27.2c0-3.2,0-6.4,0-9.6c0-5.8,0-11.7,0-17.5c0-4.4,0-8.7,0-13.1c0-0.8,0.1-1.6-0.8-2
			c-1.1-0.5-2.2-0.9-3.4-1.3c-1.3-0.5-2.6-0.8-3.8-1.4c-1.8-0.8-3.5-1.8-5.3-2.6c-0.9-0.4-1.9-0.5-2.8-1c-2.1-1-4.1-2.1-6.2-3
			c-1.2-0.5-2.5-0.8-3.8-1.3c-1-0.4-2.1-0.8-3.1-1.3c-2.3-1.1-4.7-2.2-7-3.2c-2.5-1.1-5.1-1.8-7.6-3C95.3,8.5,92,6.7,88.5,5.1
			c-1-0.4-2.1-0.8-3.2-0.7c-1.4,0.1-2.7,0.6-4,1.1c-2,0.9-4,1.8-6.1,2.4c-2.3,0.7-4.5,1.8-6.8,2.8c-2.3,0.9-4.5,1.9-6.8,2.8
			c-0.4,0.2-0.8,0.4-1.2,0.5c-1.2,0.5-2.7,0.6-3.6,1.4c-1.1,0.8-2.3,1-3.4,1.5c-1.6,0.7-3.3,1.4-4.9,2.1c-1.5,0.6-2.9,1.3-4.4,1.8
			c-1.3,0.5-2.6,0.8-3.9,1.3c-1.6,0.6-3.2,1.4-4.8,2.1c-1.9,0.8-3.8,1.5-5.7,2.3c-1.1,0.4-1.8,1.1-1.7,2.5c0.1,12.1,0,24.3,0,36.4
			C28.1,72.4,28.1,79.2,28.1,86z M142.5,14.7C142.5,14.7,142.5,14.7,142.5,14.7c0-1.8,0-3.5,0-5.3c0-0.4-0.3-0.8-0.7-1
			c-1.1-0.7-2.3-1-3.6-1.3c-1.3-0.3-2.5-1.3-3.8-1.9c-1.2-0.5-2.5-0.9-3.7-1.4c-1.3-0.5-2.6-1-3.9-1.6c-2.2-1-4.4-2-6.6-2.9
			c-1.3-0.5-2.7-0.9-3.9-1.4c-1.2-0.5-2.2-1.1-3.4-1.6c-0.8-0.4-1.7-0.6-2.6-1c-1.3-0.6-2.6-1.3-3.9-1.8c-1.3-0.5-2.6-0.8-3.9-1.4
			c-1.7-0.8-3.3-1.8-5-2.5c-1.5-0.6-3.2-0.7-4.7-1.7c-1.5-1-3.4-1.3-5-2.1c-1.7-0.8-3.3-0.8-5-0.1c-3,1.2-5.9,2.6-8.9,3.8
			c-2,0.8-4.1,1.6-6.1,2.4c-1.6,0.7-3.1,1.5-4.7,2.1c-1.6,0.7-3.4,1.2-5,1.9c-1.8,0.8-3.4,2.2-5.5,2.2c-0.1,0-0.3,0.1-0.4,0.2
			c-1.3,0.7-2.6,1.4-3.9,2c-1.6,0.7-3.2,1.2-4.8,1.9c-1.8,0.7-3.6,1.4-5.3,2.1c-1.3,0.5-2.5,1.2-3.8,1.8c-1.8,0.8-3.7,1.5-5.5,2.3
			c-0.3,0.1-0.7,0.6-0.7,1c-0.1,3.1,0,6.2,0,9.4c0,1,0.6,1.4,1.4,1c1-0.4,1.9-0.8,2.9-1.2c2.2-0.9,4.4-1.9,6.6-2.8
			c1.6-0.7,3.3-1.2,4.9-1.8c2.6-1.1,5.1-2.2,7.7-3.3c1.2-0.5,2.5-0.9,3.7-1.4c2.3-1,4.5-2.2,6.9-3.1c2.2-0.9,4.5-1.7,6.7-2.5
			c1.7-0.7,3.4-1.4,5-2.1c1.7-0.7,3.5-1.5,5.2-2.2c1.8-0.8,3.5-1.5,5.3-2.3C85-3.1,85.5-3.1,86-3c1.1,0.4,2.2,0.9,3.3,1.4
			c1.3,0.6,2.5,1.4,3.9,1.9c1.7,0.6,3.5,1,4.9,2.2c0.1,0.1,0.3,0.1,0.4,0.1c2.5,0.1,4.5,1.9,6.8,2.7c1.7,0.6,3.2,1.9,5.2,2
			c0.2,0,0.4,0.2,0.5,0.3c1.1,0.6,2.2,1.3,3.4,1.9c1,0.5,2.1,0.9,3.2,1.3c1.3,0.5,2.6,1,3.9,1.5c1,0.4,1.9,0.9,2.8,1.3
			c1.7,0.8,3.5,1.5,5.2,2.2c1.3,0.6,2.6,1.2,3.9,1.7c1.2,0.5,2.6,0.8,3.8,1.3c1.3,0.6,2.5,1.4,3.8,2c0.9,0.4,1.5,0,1.5-1
			C142.5,18.1,142.5,16.4,142.5,14.7z M27.8,115.9c0.1,0.7,0.2,1.2,0.2,1.7c0,2.7,0,5.4-0.1,8.2c0,1.3,0.7,2,1.6,2.6
			c0.5,0.3,1.2,0.5,1.8,0.7c1.9,0.7,3.8,1.4,5.7,2.1c1.5,0.6,3,1.3,4.5,2c1.7,0.7,3.4,1.4,5,2.2c0.8,0.4,1.6,0.8,2.4,1.2
			c2.2,0.9,4.5,1.7,6.7,2.6c2.2,0.9,4.5,1.8,6.7,2.6c0.7,0.3,1.4,0.4,2,0.8c1.6,1,3.3,1.9,5.3,2c0.2,0,0.4,0.1,0.5,0.2
			c0.5,0.8,1.3,1,2.2,0.9c0.2,0,0.5,0.2,0.7,0.3c1.6,1,3.1,2.1,5.1,2c0.3,0,0.9,0.1,1,0.3c0.7,1.3,2.1,1.4,3.2,1.9
			c1.3,0.6,2.8,0.6,4.2,0.1c0.7-0.3,1.8,0.3,2-1c0-0.1,0.4-0.2,0.6-0.2c1.8,0.5,3.1-0.8,4.3-1.5c1.5-0.8,3.2-0.9,4.6-1.9
			c1.1-0.7,2.6-0.8,3.9-1.4c1.9-0.9,3.5-2.2,5.4-2.9c1.4-0.5,3-0.8,4.4-1.5c0.5-0.3,1.1-0.5,1.6-0.7c0.2-0.1,0.5-0.3,0.7-0.4
			c0.8-0.1,1.7,0.3,1.9-1c0-0.1,0.4-0.2,0.7-0.1c1.5,0.2,2.4-1.7,4-1.3c0,0,0.1-0.3,0.2-0.4c0.3-0.2,0.6-0.6,1-0.7
			c0.7-0.2,1.6-0.2,2.3-0.5c1.6-0.7,2.9-2.2,4.9-1.9c0.2,0,0.4-0.3,0.7-0.4c0.4-0.2,0.9-0.4,1.3-0.7c0.8-0.7,1.6-1.3,2.8-1.3
			c0,0,0.1-0.1,0.1-0.2c0-0.9,0.7-0.8,1.3-0.8c1.3,0,2.5,0,3.6-1c0.6-0.6,1.5-1.1,2.4-1.2c1-0.2,1.3-0.4,1.1-1.4
			c-0.3-1.2-0.6-2.5-0.6-3.7c0-1.4,0.2-2.8,0.4-4.2c0-0.4,0.2-0.7,0.4-1.1c0.3-0.6,0.2-1-0.5-1c-0.4,0-0.8,0.2-1.2,0.3
			c-0.8,0.3-1.5,0.5-2.3,0.8c-1.1,0.4-2.4,0.7-3.1,1.5c-0.5,0.7-0.9,0.8-1.6,0.8c-1-0.1-1.8,0.4-2.6,0.8c-1.2,0.6-2.2,1.7-3.8,1.6
			c-0.8-0.1-2.1,0.6-2.5,1.3c-0.4,0.7-0.8,0.6-1.3,0.7c-1.2,0.1-2.4,0.1-3.5,1c-0.6,0.5-1.2,1.3-1.9,1.3c-1.4,0.1-2.4,0.6-3.6,1.2
			c-1.7,0.8-3.5,1.3-5.3,1.9c-0.3,0.1-0.6,0.4-0.9,0.5c-1.3,0.4-2.4,1.3-3.8,1.5c-1,0.1-2,0.8-3,1.2c-1.4,0.6-2.7,1.3-4.1,1.9
			c-1.6,0.6-3.3,1.2-4.9,1.8c-1.8,0.7-3.6,1.6-5.5,2.2c-1,0.3-2.1,0.7-3.1,0.4c-1.6-0.4-3.1-1.2-4.7-1.9c-1.9-0.8-3.8-1.7-5.7-2.6
			c-1.4-0.6-2.8-1-4.2-1.6c-1.8-0.8-3.6-1.6-5.4-2.4c-1.5-0.6-3-1.1-4.5-1.7c-1-0.4-1.9-0.8-2.9-1.2c-1.6-0.7-3.3-1.4-4.9-2.1
			c-1.8-0.8-3.7-1.7-5.5-2.4c-1.4-0.6-2.9-1.1-4.4-1.7c-1.4-0.6-2.8-1.2-4.3-1.8c-2.1-0.9-4.3-1.8-6.4-2.7
			C30.3,116.1,29.1,115.3,27.8,115.9z M21.3,30.5c-1.3,0.4-2.3,0.6-3.3,1c-1.6,0.6-3.3,1.4-4.9,2.1c-1.4,0.6-2.7,1.1-4.1,1.6
			c-1.2,0.5-2.4,1.4-3.7,1.7c-1.2,0.2-1.2,0.7-1.2,1.6c0,18.6,0,37.3,0,55.9c0,1.2,0,2.3,0,3.5c0,0.3,0.4,0.8,0.5,0.8
			c1.7-0.1,2.9,1.3,4.4,1.7c1.4,0.4,2.7,1.2,4,1.8c2.2,0.9,4.4,1.8,6.6,2.7c1,0.4,1.6,0.1,1.6-1c0-23.9,0-47.9,0-71.8
			C21.3,31.6,21.3,31.2,21.3,30.5z M166.8,55.2c-0.1,0-0.2,0-0.3,0c0-0.3,0-0.6,0-1c0-4.8,0-9.5,0-14.3c0-0.6-0.3-1.4-0.7-1.7
			c-0.6-0.4-1.5-0.5-2.2-0.7c-0.8-0.3-1.5-0.5-2.2-0.9c-1.3-0.6-2.5-1.4-3.8-1.9c-2.2-0.9-4.6-1.6-6.8-2.5c-1.4-0.5-1.4-0.6-1.4,0.9
			c0,0.2,0,0.5,0,0.7c0,20.4-0.1,40.8-0.1,61.2c0,2.8,0,5.5,0.1,8.3c0,0.6,0.6,1.7,0.7,1.6c0.9-0.2,2.1-0.3,2.6-1
			c0.5-0.6,0.8-0.7,1.4-0.7c1.2,0,2.4,0,3.4-1c0.7-0.6,1.7-1,2.6-1.3c0.7-0.2,1.8,0.3,2-1c0-0.1,0.3-0.2,0.4-0.2
			c1.2,0.1,2.2-0.3,3.2-1.1c0.5-0.4,0.8-0.6,0.8-1.2c0-1.5,0-3,0-4.4c0.1-7.6,0.3-15.2,0.4-22.8C166.9,65.3,166.8,60.2,166.8,55.2z"
			/>
		<path class="st2" d="M28.1,86c0-6.8,0-13.6,0-20.4c0-12.1,0-24.3,0-36.4c0-1.4,0.7-2,1.7-2.5c1.9-0.8,3.8-1.5,5.7-2.3
			c1.6-0.7,3.1-1.5,4.8-2.1c1.3-0.5,2.6-0.8,3.9-1.3c1.5-0.6,2.9-1.2,4.4-1.8c1.6-0.7,3.3-1.4,4.9-2.1c1.1-0.5,2.3-0.6,3.4-1.5
			c1-0.8,2.4-1,3.6-1.4c0.4-0.1,0.8-0.4,1.2-0.5c2.3-0.9,4.5-1.9,6.8-2.8c2.2-0.9,4.4-2.1,6.8-2.8c2.1-0.6,4.1-1.5,6.1-2.4
			c1.3-0.5,2.6-1,4-1.1c1-0.1,2.2,0.2,3.2,0.7C92,6.7,95.3,8.5,98.8,10c2.5,1.1,5.1,1.9,7.6,3c2.4,1,4.7,2.2,7,3.2
			c1,0.5,2,0.9,3.1,1.3c1.2,0.4,2.6,0.7,3.8,1.3c2.1,0.9,4.1,2,6.2,3c0.9,0.4,1.9,0.5,2.8,1c1.8,0.8,3.5,1.8,5.3,2.6
			c1.2,0.6,2.6,0.9,3.8,1.4c1.1,0.4,2.3,0.8,3.4,1.3c0.8,0.4,0.8,1.2,0.8,2c0,4.4,0,8.7,0,13.1c0,5.8,0,11.7,0,17.5
			c0,3.2,0,6.4,0,9.6c0.1,9.1,0.2,18.1,0.2,27.2c0,3.3-0.2,6.7-0.2,10c0,1-0.4,1.6-1.5,1.6c-0.2,0-0.5,0-0.7,0.1
			c-1.3,0.7-2.5,1.4-3.8,2c-0.3,0.1-0.6,0.1-0.9,0.1c-0.3,0-0.6-0.1-0.8,0.1c-1.8,1.4-4.1,1.8-6.1,3c-0.8,0.5-1.9,0.6-2.8,1
			c-1.1,0.5-2.1,1-3.1,1.6c-0.1,0.1-0.2,0.1-0.3,0.1c-2.1-0.4-3.3,1.4-5.1,1.9c-1.4,0.4-2.8,1-4.1,1.6c-1.4,0.6-2.7,1.3-4.1,1.8
			c-1.5,0.6-3.1,1-4.6,1.6c-1.3,0.5-2.5,1.2-3.8,1.8c-0.4,0.2-0.8,0.3-1.2,0.4c-0.7,0.1-1.8-0.4-1.9,0.9c0,0.1-0.3,0.1-0.4,0.2
			c-1.4,0.7-2.7,1.4-4.1,2c-0.2,0.1-0.4,0.3-0.6,0.2c-1.8-0.3-3,1-4.5,1.4c-0.7,0.2-1.2,0.7-1.9,0.8c-0.6,0.1-1.2,0.1-1.7-0.1
			c-1.3-0.4-2.5-1-3.7-1.5c-1.1-0.4-2.2-0.9-3.2-1.3c-2.1-0.9-4.1-1.8-6.2-2.7c-1.4-0.6-2.8-1.2-4.2-1.8c-1.8-0.7-3.6-1.5-5.4-2.2
			c-2-0.8-4-1.7-6.1-2.6c-0.6-0.3-1.3-0.5-1.9-0.8c-2.3-1-4.6-1.9-7-2.9c-1.7-0.7-3.3-1.5-5-2.1c-1.3-0.5-2.6-0.9-3.9-1.4
			c-1.5-0.6-2.9-1.2-4.4-1.8c-1.1-0.5-2.2-1-3.3-1.5c-1.7-0.7-2-1.2-2-3C28.1,99.3,28.1,92.7,28.1,86C28.1,86,28.1,86,28.1,86z
			 M71.2,58.6c-0.3-1.6-0.5-2.9-0.8-4.1c-0.2-0.7-0.3-1.5-0.8-2c-1.2-1.3-2.1-2.8-3.6-3.7c-1-0.6-2.1-1.5-3.2-1.5
			c-1.7,0-3.3-0.5-5.1-0.2c-2.5,0.4-4.6,1.1-6.4,3c-0.3,0.3-0.7,0.7-1,1c-2.1,2-2.4,4.6-2.6,7.2c-0.1,2.2,0.7,4.5,2,6.4
			c1.4,2,2.9,3.7,5.5,4.4c2.3,0.6,4.3,1.4,6.7,0.5c2.2-0.8,4.3-1.4,5.8-3.3c0.7-0.8,1.8-1.4,2.1-2.4C70.5,62.2,70.8,60.3,71.2,58.6z
			 M123,58.9c0.2-2.4,0-4.5-1.2-6.3c-1-1.4-2.2-2.8-3.5-3.9c-0.9-0.7-2.2-1.2-3.3-1.4c-1.5-0.2-3.1,0-4.6-0.1
			c-2.7-0.2-4.7,1.1-6.5,2.9c-0.2,0.2-0.4,0.3-0.5,0.5c-0.9,1.2-1.9,2.2-2.5,3.5c-0.9,1.8-0.7,3.9-0.6,5.8c0.1,1.1,0.3,2.3,0.9,3.2
			c0.8,1.4,2,2.6,3,3.8c1.9,2.1,4.5,2.8,7.1,3c1.6,0.1,3.3-0.5,5-1.1c2-0.6,3.8-1.9,5-3.7C122.4,63.3,123.6,61.2,123,58.9z"/>
		<path class="st2" d="M142.5,14.7c0,1.7,0,3.4,0,5.2c0,1-0.6,1.5-1.5,1c-1.3-0.7-2.5-1.4-3.8-2c-1.2-0.5-2.6-0.8-3.8-1.3
			c-1.3-0.5-2.6-1.2-3.9-1.7c-1.7-0.8-3.5-1.5-5.2-2.2c-0.9-0.4-1.9-0.9-2.8-1.3c-1.3-0.5-2.6-1-3.9-1.5c-1.1-0.4-2.2-0.8-3.2-1.3
			c-1.2-0.6-2.3-1.2-3.4-1.9c-0.2-0.1-0.3-0.3-0.5-0.3c-2,0-3.4-1.4-5.2-2c-2.3-0.8-4.2-2.5-6.8-2.7c-0.2,0-0.3,0-0.4-0.1
			c-1.4-1.2-3.2-1.6-4.9-2.2c-1.3-0.5-2.6-1.3-3.9-1.9c-1.1-0.5-2.2-1-3.3-1.4c-0.4-0.1-1-0.1-1.4,0.1c-1.8,0.7-3.6,1.5-5.3,2.3
			c-1.7,0.7-3.5,1.5-5.2,2.2c-1.7,0.7-3.3,1.4-5,2.1c-2.2,0.9-4.5,1.6-6.7,2.5c-2.3,1-4.6,2.1-6.9,3.1c-1.2,0.5-2.5,0.9-3.7,1.4
			c-2.6,1.1-5.1,2.2-7.7,3.3c-1.6,0.7-3.3,1.2-4.9,1.8c-2.2,0.9-4.4,1.9-6.6,2.8c-1,0.4-1.9,0.8-2.9,1.2c-0.9,0.4-1.4,0-1.4-1
			c0-3.1,0-6.2,0-9.4c0-0.3,0.3-0.8,0.7-1c1.8-0.8,3.7-1.5,5.5-2.3c1.3-0.6,2.5-1.2,3.8-1.8c1.8-0.7,3.5-1.4,5.3-2.1
			c1.6-0.6,3.2-1.2,4.8-1.9c1.3-0.6,2.6-1.3,3.9-2c0.1-0.1,0.3-0.2,0.4-0.2c2.1,0,3.7-1.4,5.5-2.2c1.6-0.7,3.4-1.2,5-1.9
			c1.6-0.7,3.1-1.5,4.7-2.1c2-0.8,4.1-1.6,6.1-2.4c3-1.2,5.9-2.6,8.9-3.8c1.6-0.6,3.3-0.7,5,0.1c1.6,0.8,3.5,1.1,5,2.1
			c1.5,1,3.2,1.1,4.7,1.7c1.7,0.7,3.3,1.8,5,2.5c1.3,0.6,2.6,0.9,3.9,1.4c1.3,0.5,2.6,1.2,3.9,1.8c0.8,0.4,1.7,0.6,2.6,1
			c1.1,0.5,2.2,1.1,3.4,1.6c1.3,0.5,2.7,0.8,3.9,1.4c2.2,0.9,4.4,1.9,6.6,2.9c1.3,0.6,2.6,1.1,3.9,1.6c1.2,0.5,2.5,0.9,3.7,1.4
			c1.3,0.6,2.5,1.6,3.8,1.9c1.3,0.3,2.5,0.6,3.6,1.3c0.3,0.2,0.6,0.7,0.7,1C142.5,11.2,142.4,12.9,142.5,14.7
			C142.5,14.7,142.5,14.7,142.5,14.7z"/>
		<path class="st2" d="M27.8,115.9c1.3-0.6,2.5,0.2,3.7,0.7c2.1,0.9,4.3,1.8,6.4,2.7c1.4,0.6,2.8,1.2,4.3,1.8c1.5,0.6,3,1.1,4.4,1.7
			c1.9,0.8,3.7,1.6,5.5,2.4c1.6,0.7,3.3,1.4,4.9,2.1c1,0.4,1.9,0.8,2.9,1.2c1.5,0.6,3,1.1,4.5,1.7c1.8,0.8,3.6,1.6,5.4,2.4
			c1.4,0.6,2.8,1,4.2,1.6c1.9,0.8,3.8,1.7,5.7,2.6c1.5,0.7,3,1.5,4.7,1.9c0.9,0.2,2.1-0.1,3.1-0.4c1.9-0.6,3.6-1.5,5.5-2.2
			c1.6-0.6,3.3-1.2,4.9-1.8c1.4-0.6,2.7-1.2,4.1-1.9c1-0.4,1.9-1.1,3-1.2c1.4-0.2,2.5-1.1,3.8-1.5c0.3-0.1,0.6-0.4,0.9-0.5
			c1.8-0.6,3.6-1.1,5.3-1.9c1.2-0.5,2.3-1.1,3.6-1.2c0.6,0,1.3-0.8,1.9-1.3c1-0.9,2.2-0.9,3.5-1c0.5-0.1,0.9,0,1.3-0.7
			c0.4-0.7,1.7-1.4,2.5-1.3c1.6,0.1,2.6-1,3.8-1.6c0.9-0.4,1.6-0.9,2.6-0.8c0.6,0,1-0.1,1.6-0.8c0.6-0.8,2-1,3.1-1.5
			c0.7-0.3,1.5-0.6,2.3-0.8c0.4-0.1,0.8-0.3,1.2-0.3c0.8,0,0.9,0.4,0.5,1c-0.2,0.3-0.3,0.7-0.4,1.1c-0.2,1.4-0.4,2.8-0.4,4.2
			c0,1.2,0.3,2.5,0.6,3.7c0.2,1,0,1.3-1.1,1.4c-0.8,0.1-1.7,0.6-2.4,1.2c-1.1,1-2.3,1-3.6,1c-0.6,0-1.3-0.2-1.3,0.8
			c0,0.1-0.1,0.2-0.1,0.2c-1.1,0-2,0.6-2.8,1.3c-0.4,0.3-0.9,0.4-1.3,0.7c-0.2,0.1-0.5,0.5-0.7,0.4c-2-0.3-3.3,1.2-4.9,1.9
			c-0.7,0.3-1.5,0.3-2.3,0.5c-0.4,0.1-0.7,0.4-1,0.7c-0.1,0.1-0.2,0.4-0.2,0.4c-1.6-0.5-2.5,1.5-4,1.3c-0.2,0-0.6,0.1-0.7,0.1
			c-0.2,1.3-1.2,0.9-1.9,1c-0.2,0-0.5,0.3-0.7,0.4c-0.5,0.3-1.1,0.5-1.6,0.7c-1.4,0.7-2.9,1-4.4,1.5c-1.9,0.7-3.6,2-5.4,2.9
			c-1.2,0.6-2.8,0.6-3.9,1.4c-1.4,1-3.1,1.1-4.6,1.9c-1.2,0.7-2.5,2-4.3,1.5c-0.2-0.1-0.6,0.1-0.6,0.2c-0.2,1.3-1.3,0.8-2,1
			c-1.4,0.5-2.9,0.5-4.2-0.1c-1.1-0.5-2.5-0.6-3.2-1.9c-0.1-0.2-0.7-0.4-1-0.3c-2,0.2-3.6-0.9-5.1-2c-0.2-0.1-0.5-0.3-0.7-0.3
			c-0.9,0.1-1.6-0.1-2.2-0.9c-0.1-0.1-0.3-0.2-0.5-0.2c-2-0.1-3.6-1-5.3-2c-0.6-0.4-1.4-0.5-2-0.8c-2.2-0.9-4.5-1.8-6.7-2.6
			c-2.2-0.9-4.5-1.7-6.7-2.6c-0.8-0.3-1.6-0.8-2.4-1.2c-1.7-0.7-3.4-1.4-5-2.2c-1.5-0.6-3-1.4-4.5-2c-1.9-0.8-3.8-1.4-5.7-2.1
			c-0.6-0.2-1.3-0.4-1.8-0.7c-0.9-0.6-1.7-1.3-1.6-2.6c0.1-2.7,0.1-5.4,0.1-8.2C28.1,117.1,27.9,116.6,27.8,115.9z"/>
		<path class="st2" d="M21.3,30.5c0,0.7,0,1.1,0,1.5c0,23.9,0,47.9,0,71.8c0,1.1-0.5,1.5-1.6,1c-2.2-0.9-4.4-1.8-6.6-2.7
			c-1.4-0.6-2.6-1.4-4-1.8c-1.5-0.4-2.7-1.8-4.4-1.7c-0.2,0-0.5-0.5-0.5-0.8c-0.1-1.2,0-2.3,0-3.5c0-18.6,0-37.3,0-55.9
			c0-0.9,0-1.4,1.2-1.6c1.3-0.2,2.4-1.1,3.7-1.7c1.3-0.6,2.7-1.1,4.1-1.6c1.6-0.7,3.2-1.4,4.9-2.1C18.9,31.1,20,30.9,21.3,30.5z"/>
		<path class="st2" d="M166.8,55.2c0,5.1,0,10.1,0,15.2c-0.1,7.6-0.2,15.2-0.4,22.8c0,1.5,0,3,0,4.4c0,0.6-0.2,0.8-0.8,1.2
			c-1,0.8-2,1.2-3.2,1.1c-0.1,0-0.4,0.1-0.4,0.2c-0.2,1.3-1.3,0.8-2,1c-0.9,0.3-1.9,0.7-2.6,1.3c-1,1-2.2,1-3.4,1
			c-0.6,0-0.9,0.1-1.4,0.7c-0.5,0.6-1.7,0.8-2.6,1c-0.2,0-0.7-1.1-0.7-1.6c-0.1-2.8-0.1-5.5-0.1-8.3c0-20.4,0.1-40.8,0.1-61.2
			c0-0.2,0-0.5,0-0.7c0-1.5,0-1.5,1.4-0.9c2.3,0.9,4.6,1.6,6.8,2.5c1.3,0.5,2.5,1.3,3.8,1.9c0.7,0.3,1.5,0.6,2.2,0.9
			c0.7,0.3,1.6,0.3,2.2,0.7c0.4,0.3,0.7,1.1,0.7,1.7c0.1,4.8,0,9.5,0,14.3c0,0.3,0,0.6,0,1C166.6,55.2,166.7,55.2,166.8,55.2z"/>
		<path d="M71.2,58.6c-0.4,1.6-0.8,3.6-1.5,5.4c-0.4,0.9-1.5,1.5-2.1,2.4c-1.5,1.9-3.6,2.5-5.8,3.3c-2.4,0.8-4.4,0.1-6.7-0.5
			c-2.6-0.7-4.1-2.4-5.5-4.4c-1.3-1.9-2.1-4.2-2-6.4c0.1-2.6,0.5-5.2,2.6-7.2c0.3-0.3,0.7-0.7,1-1c1.8-1.8,3.9-2.5,6.4-3
			c1.8-0.3,3.4,0.2,5.1,0.2c1.1,0,2.2,0.9,3.2,1.5c1.5,0.9,2.5,2.4,3.6,3.7c0.5,0.5,0.6,1.3,0.8,2C70.7,55.8,70.9,57,71.2,58.6z"/>
		<path d="M123,58.9c0.6,2.3-0.6,4.4-1.9,6.4c-1.1,1.8-2.9,3-5,3.7c-1.6,0.5-3.3,1.2-5,1.1c-2.6-0.2-5.2-0.9-7.1-3
			c-1.1-1.2-2.2-2.4-3-3.8c-0.6-0.9-0.8-2.1-0.9-3.2c-0.1-2-0.4-4,0.6-5.8c0.6-1.3,1.7-2.3,2.5-3.5c0.1-0.2,0.3-0.3,0.5-0.5
			c1.8-1.8,3.8-3.1,6.5-2.9c1.5,0.1,3.1-0.2,4.6,0.1c1.2,0.2,2.4,0.6,3.3,1.4c1.3,1.1,2.5,2.4,3.5,3.9C123,54.3,123.2,56.4,123,58.9
			z"/>
	</g>
</g>
<g id="Layer_2">
	<g>
		<g>
			<linearGradient id="SVGID_1_" gradientUnits="userSpaceOnUse" x1="370.8185" y1="-217.7274" x2="115.9385" y2="238.0326">
				<stop  offset="0" style="stop-color:#4F61AB"/>
				<stop  offset="0.2207" style="stop-color:#BA4397"/>
				<stop  offset="0.3935" style="stop-color:#D74D76"/>
				<stop  offset="0.5378" style="stop-color:#E95461"/>
				<stop  offset="0.6341" style="stop-color:#EF565A"/>
				<stop  offset="0.7268" style="stop-color:#EF5959"/>
				<stop  offset="0.7974" style="stop-color:#F16357"/>
				<stop  offset="0.8608" style="stop-color:#F37353"/>
				<stop  offset="0.9199" style="stop-color:#F68A4E"/>
				<stop  offset="0.9756" style="stop-color:#FAA748"/>
				<stop  offset="1" style="stop-color:#FCB744"/>
			</linearGradient>
			<path class="st3" d="M217.9,76.7h6.5v18.5c-2.4,1.9-5.1,3.4-8.2,4.5c-3.1,1-6.4,1.6-9.8,1.6c-4.8,0-9.1-1.1-12.9-3.2
				c-3.8-2.1-6.9-5-9-8.7c-2.2-3.7-3.3-7.8-3.3-12.4c0-4.6,1.1-8.8,3.3-12.5c2.2-3.7,5.2-6.6,9.1-8.7c3.9-2.1,8.2-3.1,13-3.1
				c3.8,0,7.2,0.6,10.3,1.9c3.1,1.2,5.7,3.1,7.9,5.5l-4.2,4.2c-3.8-3.7-8.4-5.5-13.8-5.5c-3.6,0-6.9,0.8-9.7,2.3
				c-2.9,1.6-5.1,3.7-6.7,6.5c-1.6,2.8-2.4,5.9-2.4,9.4c0,3.4,0.8,6.5,2.4,9.3c1.6,2.8,3.9,5,6.7,6.5c2.9,1.6,6.1,2.4,9.7,2.4
				c4.2,0,8-1,11.1-3V76.7z"/>
			<linearGradient id="SVGID_2_" gradientUnits="userSpaceOnUse" x1="411.713" y1="-194.8575" x2="156.8331" y2="260.9025">
				<stop  offset="0" style="stop-color:#4F61AB"/>
				<stop  offset="0.2207" style="stop-color:#BA4397"/>
				<stop  offset="0.3935" style="stop-color:#D74D76"/>
				<stop  offset="0.5378" style="stop-color:#E95461"/>
				<stop  offset="0.6341" style="stop-color:#EF565A"/>
				<stop  offset="0.7268" style="stop-color:#EF5959"/>
				<stop  offset="0.7974" style="stop-color:#F16357"/>
				<stop  offset="0.8608" style="stop-color:#F37353"/>
				<stop  offset="0.9199" style="stop-color:#F68A4E"/>
				<stop  offset="0.9756" style="stop-color:#FAA748"/>
				<stop  offset="1" style="stop-color:#FCB744"/>
			</linearGradient>
			<path class="st4" d="M246.9,98.7c-2.8-1.6-5.1-3.8-6.7-6.5c-1.6-2.8-2.4-5.9-2.4-9.5s0.8-6.7,2.4-9.5c1.6-2.8,3.8-4.9,6.7-6.5
				c2.8-1.6,6.1-2.3,9.6-2.3c3.6,0,6.8,0.8,9.6,2.3c2.8,1.6,5,3.7,6.6,6.5c1.6,2.8,2.4,5.9,2.4,9.5s-0.8,6.7-2.4,9.5
				c-1.6,2.8-3.8,5-6.6,6.5c-2.8,1.6-6,2.4-9.6,2.4C253,101.1,249.8,100.3,246.9,98.7z M262.7,93.8c1.8-1.1,3.3-2.6,4.3-4.5
				c1-1.9,1.6-4.1,1.6-6.6c0-2.5-0.5-4.7-1.6-6.6c-1-1.9-2.5-3.4-4.3-4.4c-1.8-1-3.9-1.6-6.2-1.6c-2.3,0-4.4,0.5-6.2,1.6
				c-1.8,1-3.3,2.5-4.3,4.4c-1.1,1.9-1.6,4.1-1.6,6.6c0,2.5,0.5,4.7,1.6,6.6c1.1,1.9,2.5,3.4,4.3,4.5c1.8,1.1,3.9,1.6,6.2,1.6
				C258.8,95.4,260.9,94.8,262.7,93.8z"/>
			<linearGradient id="SVGID_3_" gradientUnits="userSpaceOnUse" x1="437.2682" y1="-180.566" x2="182.3882" y2="275.194">
				<stop  offset="0" style="stop-color:#4F61AB"/>
				<stop  offset="0.2207" style="stop-color:#BA4397"/>
				<stop  offset="0.3935" style="stop-color:#D74D76"/>
				<stop  offset="0.5378" style="stop-color:#E95461"/>
				<stop  offset="0.6341" style="stop-color:#EF565A"/>
				<stop  offset="0.7268" style="stop-color:#EF5959"/>
				<stop  offset="0.7974" style="stop-color:#F16357"/>
				<stop  offset="0.8608" style="stop-color:#F37353"/>
				<stop  offset="0.9199" style="stop-color:#F68A4E"/>
				<stop  offset="0.9756" style="stop-color:#FAA748"/>
				<stop  offset="1" style="stop-color:#FCB744"/>
			</linearGradient>
			<path class="st5" d="M289.9,53.2h6.8v47.4h-6.8V53.2z"/>
			<linearGradient id="SVGID_4_" gradientUnits="userSpaceOnUse" x1="469.0231" y1="-162.8073" x2="214.1431" y2="292.9527">
				<stop  offset="0" style="stop-color:#4F61AB"/>
				<stop  offset="0.2207" style="stop-color:#BA4397"/>
				<stop  offset="0.3935" style="stop-color:#D74D76"/>
				<stop  offset="0.5378" style="stop-color:#E95461"/>
				<stop  offset="0.6341" style="stop-color:#EF565A"/>
				<stop  offset="0.7268" style="stop-color:#EF5959"/>
				<stop  offset="0.7974" style="stop-color:#F16357"/>
				<stop  offset="0.8608" style="stop-color:#F37353"/>
				<stop  offset="0.9199" style="stop-color:#F68A4E"/>
				<stop  offset="0.9756" style="stop-color:#FAA748"/>
				<stop  offset="1" style="stop-color:#FCB744"/>
			</linearGradient>
			<path class="st6" d="M344.7,68.4c2.7,2.6,4,6.5,4,11.6v20.7h-6.5V80.7c0-3.5-0.8-6.1-2.5-7.9c-1.7-1.8-4.1-2.6-7.2-2.6
				c-3.5,0-6.3,1-8.3,3.1c-2,2.1-3,5-3,8.8v18.5h-6.5V64.7h6.2v5.4c1.3-1.9,3.1-3.3,5.3-4.3c2.2-1,4.8-1.5,7.6-1.5
				C338.4,64.4,342.1,65.7,344.7,68.4z"/>
			<linearGradient id="SVGID_5_" gradientUnits="userSpaceOnUse" x1="503.386" y1="-143.5901" x2="248.506" y2="312.1699">
				<stop  offset="0" style="stop-color:#4F61AB"/>
				<stop  offset="0.2207" style="stop-color:#BA4397"/>
				<stop  offset="0.3935" style="stop-color:#D74D76"/>
				<stop  offset="0.5378" style="stop-color:#E95461"/>
				<stop  offset="0.6341" style="stop-color:#EF565A"/>
				<stop  offset="0.7268" style="stop-color:#EF5959"/>
				<stop  offset="0.7974" style="stop-color:#F16357"/>
				<stop  offset="0.8608" style="stop-color:#F37353"/>
				<stop  offset="0.9199" style="stop-color:#F68A4E"/>
				<stop  offset="0.9756" style="stop-color:#FAA748"/>
				<stop  offset="1" style="stop-color:#FCB744"/>
			</linearGradient>
			<path class="st7" d="M367.4,99.9c-2.7-0.8-4.8-1.8-6.4-3l2.7-5.2c1.6,1.1,3.5,2,5.8,2.7c2.3,0.7,4.5,1,6.8,1
				c5.7,0,8.5-1.6,8.5-4.9c0-1.1-0.4-1.9-1.2-2.6c-0.8-0.6-1.7-1.1-2.9-1.4c-1.2-0.3-2.8-0.6-4.9-1c-2.9-0.5-5.3-1-7.1-1.6
				c-1.8-0.6-3.4-1.6-4.7-3c-1.3-1.4-2-3.4-2-5.9c0-3.3,1.4-5.9,4.1-7.8c2.7-2,6.3-2.9,10.9-2.9c2.4,0,4.8,0.3,7.2,0.9
				c2.4,0.6,4.4,1.4,5.9,2.4l-2.8,5.2c-2.9-1.9-6.4-2.8-10.4-2.8c-2.8,0-4.9,0.5-6.3,1.4c-1.4,0.9-2.2,2.1-2.2,3.6
				c0,1.2,0.4,2.1,1.2,2.8s1.8,1.2,3,1.5c1.2,0.3,2.9,0.7,5,1.1c2.9,0.5,5.2,1,7,1.6c1.8,0.6,3.3,1.5,4.6,2.9
				c1.3,1.4,1.9,3.3,1.9,5.7c0,3.3-1.4,5.8-4.2,7.8c-2.8,1.9-6.6,2.9-11.4,2.9C373,101.1,370.1,100.7,367.4,99.9z"/>
			<linearGradient id="SVGID_6_" gradientUnits="userSpaceOnUse" x1="529.5768" y1="-128.9431" x2="274.6968" y2="326.8169">
				<stop  offset="0" style="stop-color:#4F61AB"/>
				<stop  offset="0.2207" style="stop-color:#BA4397"/>
				<stop  offset="0.3935" style="stop-color:#D74D76"/>
				<stop  offset="0.5378" style="stop-color:#E95461"/>
				<stop  offset="0.6341" style="stop-color:#EF565A"/>
				<stop  offset="0.7268" style="stop-color:#EF5959"/>
				<stop  offset="0.7974" style="stop-color:#F16357"/>
				<stop  offset="0.8608" style="stop-color:#F37353"/>
				<stop  offset="0.9199" style="stop-color:#F68A4E"/>
				<stop  offset="0.9756" style="stop-color:#FAA748"/>
				<stop  offset="1" style="stop-color:#FCB744"/>
			</linearGradient>
			<path class="st8" d="M424.5,98.5c-0.9,0.8-2.1,1.4-3.5,1.9s-2.8,0.6-4.3,0.6c-3.6,0-6.4-1-8.4-2.9c-2-1.9-3-4.7-3-8.3V70.1h-6.1
				v-5.4h6.1v-7.9h6.5v7.9H422v5.4h-10.3v19.5c0,1.9,0.5,3.4,1.5,4.5c1,1,2.4,1.6,4.2,1.6c2,0,3.7-0.6,5.1-1.7L424.5,98.5z"/>
			<linearGradient id="SVGID_7_" gradientUnits="userSpaceOnUse" x1="560.3625" y1="-111.7265" x2="305.4825" y2="344.0335">
				<stop  offset="0" style="stop-color:#4F61AB"/>
				<stop  offset="0.2207" style="stop-color:#BA4397"/>
				<stop  offset="0.3935" style="stop-color:#D74D76"/>
				<stop  offset="0.5378" style="stop-color:#E95461"/>
				<stop  offset="0.6341" style="stop-color:#EF565A"/>
				<stop  offset="0.7268" style="stop-color:#EF5959"/>
				<stop  offset="0.7974" style="stop-color:#F16357"/>
				<stop  offset="0.8608" style="stop-color:#F37353"/>
				<stop  offset="0.9199" style="stop-color:#F68A4E"/>
				<stop  offset="0.9756" style="stop-color:#FAA748"/>
				<stop  offset="1" style="stop-color:#FCB744"/>
			</linearGradient>
			<path class="st9" d="M461.6,68c2.6,2.4,4,6.1,4,10.9v21.7h-6.2v-4.7c-1.1,1.7-2.6,2.9-4.6,3.8c-2,0.9-4.4,1.3-7.2,1.3
				c-4,0-7.2-1-9.7-2.9c-2.4-1.9-3.6-4.5-3.6-7.7c0-3.2,1.2-5.7,3.5-7.6c2.3-1.9,6-2.9,11-2.9h10.3v-1.3c0-2.8-0.8-4.9-2.4-6.4
				c-1.6-1.5-4-2.2-7.2-2.2c-2.1,0-4.2,0.4-6.2,1.1c-2,0.7-3.8,1.6-5.2,2.8l-2.7-4.9c1.9-1.5,4.1-2.6,6.6-3.4
				c2.6-0.8,5.3-1.2,8.2-1.2C455.1,64.4,459,65.6,461.6,68z M455.1,94.4c1.8-1.1,3.1-2.7,3.9-4.7v-5h-10c-5.5,0-8.3,1.9-8.3,5.6
				c0,1.8,0.7,3.2,2.1,4.3c1.4,1,3.3,1.6,5.8,1.6C451.2,96,453.3,95.5,455.1,94.4z"/>
			<linearGradient id="SVGID_8_" gradientUnits="userSpaceOnUse" x1="594.4048" y1="-92.6886" x2="339.5247" y2="363.0714">
				<stop  offset="0" style="stop-color:#4F61AB"/>
				<stop  offset="0.2207" style="stop-color:#BA4397"/>
				<stop  offset="0.3935" style="stop-color:#D74D76"/>
				<stop  offset="0.5378" style="stop-color:#E95461"/>
				<stop  offset="0.6341" style="stop-color:#EF565A"/>
				<stop  offset="0.7268" style="stop-color:#EF5959"/>
				<stop  offset="0.7974" style="stop-color:#F16357"/>
				<stop  offset="0.8608" style="stop-color:#F37353"/>
				<stop  offset="0.9199" style="stop-color:#F68A4E"/>
				<stop  offset="0.9756" style="stop-color:#FAA748"/>
				<stop  offset="1" style="stop-color:#FCB744"/>
			</linearGradient>
			<path class="st10" d="M483.3,53.2h6.8v41.5h25.7v5.9h-32.5V53.2z"/>
			<linearGradient id="SVGID_9_" gradientUnits="userSpaceOnUse" x1="629.2883" y1="-73.1803" x2="374.4083" y2="382.5797">
				<stop  offset="0" style="stop-color:#4F61AB"/>
				<stop  offset="0.2207" style="stop-color:#BA4397"/>
				<stop  offset="0.3935" style="stop-color:#D74D76"/>
				<stop  offset="0.5378" style="stop-color:#E95461"/>
				<stop  offset="0.6341" style="stop-color:#EF565A"/>
				<stop  offset="0.7268" style="stop-color:#EF5959"/>
				<stop  offset="0.7974" style="stop-color:#F16357"/>
				<stop  offset="0.8608" style="stop-color:#F37353"/>
				<stop  offset="0.9199" style="stop-color:#F68A4E"/>
				<stop  offset="0.9756" style="stop-color:#FAA748"/>
				<stop  offset="1" style="stop-color:#FCB744"/>
			</linearGradient>
			<path class="st11" d="M552.1,68c2.6,2.4,4,6.1,4,10.9v21.7h-6.2v-4.7c-1.1,1.7-2.6,2.9-4.6,3.8c-2,0.9-4.4,1.3-7.2,1.3
				c-4,0-7.2-1-9.7-2.9c-2.4-1.9-3.6-4.5-3.6-7.7c0-3.2,1.2-5.7,3.5-7.6c2.3-1.9,6-2.9,11-2.9h10.3v-1.3c0-2.8-0.8-4.9-2.4-6.4
				c-1.6-1.5-4-2.2-7.2-2.2c-2.1,0-4.2,0.4-6.2,1.1c-2,0.7-3.8,1.6-5.2,2.8l-2.7-4.9c1.9-1.5,4.1-2.6,6.6-3.4
				c2.6-0.8,5.3-1.2,8.2-1.2C545.6,64.4,549.4,65.6,552.1,68z M545.6,94.4c1.8-1.1,3.1-2.7,3.9-4.7v-5h-10c-5.5,0-8.3,1.9-8.3,5.6
				c0,1.8,0.7,3.2,2.1,4.3c1.4,1,3.3,1.6,5.8,1.6C541.6,96,543.8,95.5,545.6,94.4z"/>
			<linearGradient id="SVGID_10_" gradientUnits="userSpaceOnUse" x1="661.1342" y1="-55.3708" x2="406.2542" y2="400.3892">
				<stop  offset="0" style="stop-color:#4F61AB"/>
				<stop  offset="0.2207" style="stop-color:#BA4397"/>
				<stop  offset="0.3935" style="stop-color:#D74D76"/>
				<stop  offset="0.5378" style="stop-color:#E95461"/>
				<stop  offset="0.6341" style="stop-color:#EF565A"/>
				<stop  offset="0.7268" style="stop-color:#EF5959"/>
				<stop  offset="0.7974" style="stop-color:#F16357"/>
				<stop  offset="0.8608" style="stop-color:#F37353"/>
				<stop  offset="0.9199" style="stop-color:#F68A4E"/>
				<stop  offset="0.9756" style="stop-color:#FAA748"/>
				<stop  offset="1" style="stop-color:#FCB744"/>
			</linearGradient>
			<path class="st12" d="M601.2,66.7c2.8,1.5,4.9,3.7,6.5,6.4c1.6,2.8,2.3,5.9,2.3,9.6s-0.8,6.8-2.3,9.6c-1.6,2.8-3.7,4.9-6.5,6.5
				c-2.8,1.5-5.9,2.3-9.4,2.3c-2.7,0-5.1-0.5-7.3-1.6c-2.2-1-4-2.6-5.5-4.5v5.7h-6.2V50.4h6.5v19.8c1.4-1.9,3.3-3.3,5.4-4.3
				c2.2-1,4.5-1.5,7.1-1.5C595.4,64.4,598.5,65.2,601.2,66.7z M597.6,93.8c1.8-1.1,3.3-2.6,4.3-4.5c1.1-1.9,1.6-4.1,1.6-6.6
				c0-2.5-0.5-4.7-1.6-6.6c-1.1-1.9-2.5-3.4-4.3-4.4c-1.8-1-3.9-1.6-6.2-1.6c-2.3,0-4.3,0.5-6.2,1.6c-1.9,1-3.3,2.5-4.3,4.4
				c-1,1.9-1.6,4.1-1.6,6.6c0,2.5,0.5,4.7,1.6,6.6c1,1.9,2.5,3.4,4.3,4.5c1.9,1.1,3.9,1.6,6.2,1.6C593.7,95.4,595.7,94.8,597.6,93.8
				z"/>
		</g>
		<g>
			<g>
				<linearGradient id="SVGID_11_" gradientUnits="userSpaceOnUse" x1="167.7866" y1="-67.4963" x2="25.2266" y2="174.4238">
					<stop  offset="0" style="stop-color:#4F61AB"/>
					<stop  offset="0.2207" style="stop-color:#BA4397"/>
					<stop  offset="0.3935" style="stop-color:#D74D76"/>
					<stop  offset="0.5378" style="stop-color:#E95461"/>
					<stop  offset="0.6341" style="stop-color:#EF565A"/>
					<stop  offset="0.7268" style="stop-color:#EF5959"/>
					<stop  offset="0.7974" style="stop-color:#F16357"/>
					<stop  offset="0.8608" style="stop-color:#F37353"/>
					<stop  offset="0.9199" style="stop-color:#F68A4E"/>
					<stop  offset="0.9756" style="stop-color:#FAA748"/>
					<stop  offset="1" style="stop-color:#FCB744"/>
				</linearGradient>
				<path class="st13" d="M159.6,50.1l-21.2-8.6V24.4L79.8,0L21.2,24.7v16.8L0,50.1v63.4c0,0,0,0,0,0l21.2,9v17.9L79.8,165l58.6-26
					v-16.5l21.2-9V50.1z M133.8,44.6v74.8l-54,22.9l-54-22.9V44.6l54-21.9c0,0,0,0,0,0L133.8,44.6z"/>
			</g>
			<linearGradient id="SVGID_12_" gradientUnits="userSpaceOnUse" x1="168.23" y1="-67.235" x2="25.67" y2="174.685">
				<stop  offset="0" style="stop-color:#4F61AB"/>
				<stop  offset="0.2207" style="stop-color:#BA4397"/>
				<stop  offset="0.3935" style="stop-color:#D74D76"/>
				<stop  offset="0.5378" style="stop-color:#E95461"/>
				<stop  offset="0.6341" style="stop-color:#EF565A"/>
				<stop  offset="0.7268" style="stop-color:#EF5959"/>
				<stop  offset="0.7974" style="stop-color:#F16357"/>
				<stop  offset="0.8608" style="stop-color:#F37353"/>
				<stop  offset="0.9199" style="stop-color:#F68A4E"/>
				<stop  offset="0.9756" style="stop-color:#FAA748"/>
				<stop  offset="1" style="stop-color:#FCB744"/>
			</linearGradient>
			<path class="st14" d="M79.8,37.2L38.8,54.5v56.7l40.9,16.6l0,0l40.9-16.6V54.5L79.8,37.2z M60.5,86.3c-5.4,0-9.8-4.4-9.8-9.8
				c0-5.4,4.4-9.8,9.8-9.8s9.8,4.4,9.8,9.8C70.3,81.9,65.9,86.3,60.5,86.3z M99.1,86.3c-5.4,0-9.8-4.4-9.8-9.8
				c0-5.4,4.4-9.8,9.8-9.8s9.8,4.4,9.8,9.8C108.9,81.9,104.5,86.3,99.1,86.3z"/>
		</g>
	</g>
</g>
</svg>
